<?xml version="1.0" standalone="no"?>
<!DOCTYPE svg PUBLIC "-//W3C//DTD SVG 1.1//EN" "http://www.w3.org/Graphics/SVG/1.1/DTD/svg11.dtd" >
<svg xmlns="http://www.w3.org/2000/svg">
<metadata></metadata>
<defs>
<font id="oxygenregular" horiz-adv-x="507" >
<font-face units-per-em="2048" ascent="1638" descent="-410" />
<missing-glyph horiz-adv-x="432" />
<glyph horiz-adv-x="2048" />
<glyph horiz-adv-x="2048" />
<glyph unicode="&#xd;" horiz-adv-x="319" />
<glyph unicode=" "  horiz-adv-x="432" />
<glyph unicode="&#x09;" horiz-adv-x="432" />
<glyph unicode="&#xa0;" horiz-adv-x="432" />
<glyph unicode="!" horiz-adv-x="585" d="M391 1495v-141l-63 -920h-66l-67 920v141h196zM160 121q0 53 35.5 92t97.5 39t97.5 -39t35.5 -92q0 -54 -35.5 -93.5t-97.5 -39.5t-97.5 39.5t-35.5 93.5z" />
<glyph unicode="&#x22;" horiz-adv-x="708" d="M160 1016l-21 493h152l-31 -493h-100zM446 1016l-20 493h149l-28 -493h-101z" />
<glyph unicode="#" horiz-adv-x="1132" d="M737 932h-235l-80 -395h235zM1032 1055l-14 -123h-148l-65 -395h145l-10 -127h-154l-86 -433h-151l84 433h-236l-80 -433h-129l74 433h-172l10 127h185l59 393h-176l8 125h195l82 407h153l-80 -407h236l69 407h130l-66 -407h137z" />
<glyph unicode="$" horiz-adv-x="1226" d="M580 887l-82 18q-111 27 -166.5 78.5t-55.5 136.5q0 232 304 250v-483zM676 131v557l51 -12q136 -34 188 -93.5t52 -156.5q0 -280 -289 -295h-2zM676 -195v172q219 11 344 125t125 330q0 90 -25.5 158.5t-75 116.5t-114.5 79t-152 52l-102 24v508q105 -4 202.5 -31 t159.5 -61l52 139q-168 103 -414 109v168h-96v-170q-228 -11 -356 -113.5t-128 -300.5q0 -277 336 -360l148 -37v-582q-226 11 -435 113l-51 -144q78 -46 202.5 -82t283.5 -41v-172h96z" />
<glyph unicode="%" horiz-adv-x="1875" d="M442 1403q-72 0 -124.5 -40.5t-76.5 -102t-24 -134.5q0 -115 60 -195.5t165 -80.5q107 0 167.5 81.5t60.5 194.5q0 115 -61 196t-167 81zM442 1511q168 0 261.5 -107t93.5 -278q0 -167 -94.5 -276t-260.5 -109q-167 0 -259.5 108.5t-92.5 276.5q0 169 93.5 277t258.5 108 zM403 0l928 1495h144l-930 -1495h-142zM1434 645q-107 0 -167.5 -81.5t-60.5 -194.5q0 -115 61 -196t167 -81q72 0 124.5 40.5t76.5 102t24 134.5q0 115 -60 195.5t-165 80.5zM1434 754q168 0 260 -106.5t92 -278.5q0 -168 -93 -275.5t-259 -107.5q-168 0 -260.5 107.5 t-92.5 275.5t94 276.5t259 108.5z" />
<glyph unicode="&#x26;" horiz-adv-x="1476" d="M659 1346q-93 0 -148.5 -48t-55.5 -133q0 -68 36.5 -125t112.5 -131q61 31 98 53t77.5 54.5t59.5 70.5t19 84q0 83 -58 129t-141 46zM545 725q-126 -65 -195 -140.5t-69 -178.5q0 -128 92 -201.5t256 -73.5q200 0 356 127q-75 80 -220 233.5t-220 233.5zM440 840 q-47 52 -71.5 82t-51.5 72t-38 83t-11 88q0 150 105.5 237t283.5 87q106 0 192.5 -32.5t142 -104t55.5 -170.5q0 -64 -26 -120t-74.5 -102t-106 -83t-133.5 -72l401 -430q76 78 141 223l121 -90q-65 -140 -158 -252l181 -215q-104 -37 -156 -51l-137 153 q-208 -166 -479 -166q-252 0 -384.5 111t-132.5 307q0 154 86.5 259t249.5 186z" />
<glyph unicode="'" horiz-adv-x="391" d="M248 1016h-105l-20 493h153z" />
<glyph unicode="(" horiz-adv-x="610" d="M125 637q0 432 246 872h147q-227 -416 -227 -868q0 -212 61 -440t168 -418h-147q-112 191 -180 413.5t-68 440.5z" />
<glyph unicode=")" horiz-adv-x="610" d="M238 -217h-146q106 193 168 419.5t62 438.5q0 446 -230 868h150q245 -450 245 -872q0 -218 -68 -438t-181 -416z" />
<glyph unicode="*" horiz-adv-x="1079" d="M451 1489l32 -426l-323 180l-72 -160l350 -125l-264 -342l135 -94l228 365l235 -365l135 94l-266 342l352 125l-71 160l-322 -180l29 426h-178z" />
<glyph unicode="+" horiz-adv-x="1079" d="M100 645v-133h383v-432h135v432h371v133h-368v420h-134v-420h-387z" />
<glyph unicode="," d="M367 229l-125 -522h-107l21 522h211z" />
<glyph unicode="-" horiz-adv-x="684" d="M88 520v144h510v-144h-510z" />
<glyph unicode="." horiz-adv-x="493" d="M260 -12q62 0 97.5 39.5t35.5 93.5q0 53 -35.5 92t-97.5 39t-97.5 -39t-35.5 -92q0 -54 35.5 -93.5t97.5 -39.5z" />
<glyph unicode="/" horiz-adv-x="950" d="M195 -217h-146l676 1683h147z" />
<glyph unicode="0" horiz-adv-x="1239" d="M623 1372q-102 0 -175.5 -80t-110 -217t-36.5 -317q0 -183 36.5 -323.5t110 -223t175.5 -82.5t175 82.5t108.5 223t35.5 323.5q0 180 -35.5 317t-108.5 217t-175 80zM623 -23q-133 0 -233.5 59t-161 165t-90 244t-29.5 307q0 234 55 405t172 270t287 99t286 -99t170 -270 t54 -405q0 -134 -17.5 -249t-57 -213t-98 -166.5t-144.5 -107.5t-193 -39z" />
<glyph unicode="1" horiz-adv-x="663" d="M324 1495h159v-1495h-178v1311q-137 -88 -217 -113l-37 145q146 65 273 152z" />
<glyph unicode="2" horiz-adv-x="1114" d="M143 1395q141 131 406 131q203 0 323.5 -111.5t120.5 -296.5v-6q-1 -132 -66 -247.5t-200 -260.5l-422 -450h694l-12 -154h-874l-23 164l516 573q95 105 144.5 191.5t50.5 169.5v10q0 125 -68.5 192.5t-195.5 67.5q-214 0 -334 -123z" />
<glyph unicode="3" horiz-adv-x="1101" d="M823 412q0 78 -26 135t-68.5 90.5t-109.5 53t-135 26t-160 6.5v147q55 0 97.5 2t90.5 9t84 18.5t70 31t56 47t35 67t13 88.5q0 239 -274 239q-199 0 -334 -106l-58 145q148 115 431 115q84 0 160.5 -24.5t136.5 -70.5t95.5 -117.5t35.5 -158.5q0 -141 -69 -230.5 t-194 -127.5q139 -31 219 -131.5t80 -255.5q0 -197 -141 -315t-362 -118q-135 0 -240 35t-152 80l58 146q140 -109 332 -109q150 0 239.5 74.5t89.5 208.5z" />
<glyph unicode="4" horiz-adv-x="1210" d="M784 1270l-499 -754h499v754zM1122 371h-170v-371h-168v371h-675v153l657 971h186v-979h185z" />
<glyph unicode="5" horiz-adv-x="1175" d="M1004 1495l-17 -164h-608q-2 -72 -7 -235t-7 -236q116 74 243 74q147 0 252 -62t155 -163.5t50 -231.5q0 -226 -146 -363t-397 -137q-126 0 -229 37t-172 101l65 141q150 -117 342 -117q163 0 259 93t96 243q0 134 -80 217.5t-228 83.5q-149 0 -237 -98l-139 18l39 799 h766z" />
<glyph unicode="6" horiz-adv-x="1198" d="M293 453q0 -89 32.5 -160.5t103.5 -117.5t171 -46q148 0 233 91t85 226q0 142 -85 233t-233 91q-156 0 -231.5 -88.5t-75.5 -228.5zM637 922q126 0 233.5 -60t172.5 -169.5t65 -243.5q0 -203 -138.5 -337.5t-363.5 -134.5q-155 0 -271 67.5t-174.5 178.5t-58.5 248 q0 163 60 292.5t217 326.5q38 48 120 148t145 176l63 75h231l-526 -629q112 62 225 62z" />
<glyph unicode="7" horiz-adv-x="1050" d="M260 0l514 1341h-674l11 154h868v-135l-537 -1360h-182z" />
<glyph unicode="8" horiz-adv-x="1181" d="M594 1378q-115 0 -197 -62t-82 -165q0 -234 279 -297q274 62 274 297q0 104 -79.5 165.5t-194.5 61.5zM594 702q-143 -33 -229 -110t-86 -195q0 -123 89 -195.5t226 -72.5q136 0 222.5 72t86.5 196q0 119 -83.5 195.5t-225.5 109.5zM594 -23q-136 0 -246 45.5t-178 139.5 t-68 223q0 144 82.5 249.5t229.5 153.5q-133 47 -205 137.5t-72 223.5q0 177 127 277t330 100t326.5 -99.5t123.5 -277.5q0 -263 -253 -361q135 -48 211.5 -154t76.5 -249q0 -129 -66.5 -223t-175 -139.5t-243.5 -45.5z" />
<glyph unicode="9" horiz-adv-x="1163" d="M901 1061q0 137 -77.5 224t-225.5 87q-149 0 -236.5 -90.5t-87.5 -224.5q0 -140 84 -224.5t234 -84.5q157 0 233 87t76 226zM555 598q-126 0 -232.5 55.5t-171.5 160.5t-65 239q0 203 140.5 338t365.5 135q155 0 269.5 -65t171.5 -173.5t57 -245.5q0 -144 -48.5 -259 t-169.5 -279q-43 -57 -143.5 -183t-180.5 -223l-79 -98h-219l530 657q-106 -59 -225 -59z" />
<glyph unicode=":" horiz-adv-x="493" d="M145 -25v234h207v-234h-207zM145 893v231h207v-231h-207z" />
<glyph unicode=";" horiz-adv-x="516" d="M377 197l-125 -506h-115l58 506h182zM174 893v231h207v-231h-207z" />
<glyph unicode="&#x3c;" horiz-adv-x="1177" d="M1061 981l-766 -385l762 -381v-166l-955 498v94l959 508v-168z" />
<glyph unicode="=" horiz-adv-x="1284" d="M145 453h1002v-148h-1002v148zM143 891h1004v-150h-1004v150z" />
<glyph unicode="&#x3e;" horiz-adv-x="1181" d="M127 229l764 369l-762 399v162l956 -520v-94l-958 -484v168z" />
<glyph unicode="?" horiz-adv-x="864" d="M242 121q0 53 35.5 92t97.5 39t97.5 -39t35.5 -92q0 -54 -35.5 -93.5t-97.5 -39.5t-97.5 39.5t-35.5 93.5zM403 434h-86q0 64 29.5 147t71.5 163t83.5 158t71 154t29.5 130q-1 95 -61 140.5t-164 45.5q-137 0 -258 -80l-45 135q121 97 329 97q163 0 263 -85.5t100 -238.5 q0 -77 -22.5 -150t-63 -142.5t-84 -135t-98.5 -157.5t-95 -181z" />
<glyph unicode="@" horiz-adv-x="1787" d="M813 442q42 0 76.5 22t60 60.5t46 89.5t35.5 110.5t27.5 122.5t24.5 126q1 5 1.5 8t1 7.5t1.5 8.5q-19 10 -61 16.5t-74 6.5q-60 0 -108.5 -23.5t-79 -62.5t-51 -91.5t-29 -107.5t-8.5 -114q0 -83 36 -131t101 -48zM1212 297q-161 0 -184 158q-97 -140 -237 -140 q-109 0 -178.5 85.5t-69.5 230.5q0 80 14.5 152.5t46.5 137.5t78 112.5t114.5 75.5t151.5 28q126 0 301 -62q-12 -60 -35 -168t-35.5 -168t-23 -123.5t-10.5 -91.5q0 -106 88 -106q49 0 106 33.5t106.5 89t82.5 136.5t33 165q0 172 -85 301t-231.5 195.5t-333.5 66.5 q-185 0 -341.5 -90t-248.5 -247.5t-92 -346.5q0 -154 52 -283t142 -214t210 -132t256 -47q283 0 454 139l70 -88q-92 -85 -228 -128.5t-298 -43.5q-165 0 -309.5 57t-250 159t-166.5 252.5t-61 328.5q0 166 64 315t172.5 256.5t259.5 170.5t319 63q128 0 244.5 -30.5 t212.5 -90t167 -142t110 -191t39 -232.5q0 -100 -29.5 -189t-78.5 -152.5t-111 -109.5t-128 -69t-129 -23z" />
<glyph unicode="A" horiz-adv-x="1308" d="M420 610h479l-227 713zM1122 0l-164 473h-593l-179 -473h-180l557 1495h213l527 -1495h-181zM1176 10z" />
<glyph unicode="B" horiz-adv-x="1284" d="M324 717v-578h313q198 0 296.5 70t98.5 219q0 141 -88.5 215t-255.5 74h-364zM324 1352v-502h354q59 0 105 9.5t90.5 34t69 76t24.5 126.5q0 66 -20 113t-53 74.5t-88 43t-111.5 20.5t-137.5 5h-233zM147 0v1495h437q280 0 423.5 -86.5t143.5 -278.5q0 -116 -52.5 -205 t-160.5 -124q90 -20 153.5 -80t92 -136t28.5 -159q0 -426 -542 -426h-523z" />
<glyph unicode="C" horiz-adv-x="1288" d="M813 1526q272 0 438 -137l-63 -136q-67 53 -163 86t-206 33q-131 0 -234.5 -51t-167 -138.5t-96 -199t-32.5 -238.5q0 -98 18 -186t59 -167.5t102.5 -137t154 -91.5t206.5 -34q106 0 199 34.5t160 88.5l57 -146q-144 -129 -430 -129q-171 0 -309 60t-226 165t-135 244 t-47 299q0 166 47.5 308.5t136.5 247.5t225.5 165t305.5 60zM639 0z" />
<glyph unicode="D" horiz-adv-x="1509" d="M324 1341v-1185h315q280 0 432 145.5t152 431.5q0 139 -32 244t-89.5 173.5t-144 111.5t-187.5 61t-229 18h-217zM147 0v1495h371q161 0 292 -23t245 -77.5t191 -140.5t121 -216.5t44 -300.5q0 -183 -57 -324.5t-162 -231.5t-249 -135.5t-322 -45.5h-474zM762 745z" />
<glyph unicode="E" horiz-adv-x="1146" d="M987 846v-154h-663v-536h735l-17 -156h-895v1495h881l-12 -154h-692v-495h663zM1026 10z" />
<glyph unicode="F" horiz-adv-x="1024" d="M940 838v-144h-616v-694h-177v1495h828l-14 -154h-637v-503h616z" />
<glyph unicode="G" horiz-adv-x="1431" d="M811 -23q145 0 262 33t248 113v641h-512l-12 -150h370v-395q-55 -34 -152.5 -62t-185.5 -28q-111 0 -201.5 32.5t-152 88.5t-104 134.5t-61.5 168.5t-19 192q0 101 19 192t61.5 171t104 138.5t152 92t201.5 33.5q103 0 209 -38t172 -91l66 137q-182 146 -461 146 q-175 0 -313.5 -62.5t-225 -171t-131.5 -248t-45 -299.5q0 -156 45.5 -293.5t132 -244t224 -168.5t309.5 -62zM717 0z" />
<glyph unicode="H" horiz-adv-x="1464" d="M1141 696h-817v-696h-177v1495h177v-647h817v647h178v-1495h-178v696zM733 745z" />
<glyph unicode="I" d="M340 1495v-1495h-176v1495h176zM459 10z" />
<glyph unicode="J" horiz-adv-x="548" d="M225 180v1315h178v-1253q0 -73 -3 -122.5t-12 -101.5t-26.5 -85t-45.5 -63t-69.5 -47t-98.5 -26.5t-132 -9.5h-34l-23 141h76q53 0 89.5 13t56 32t30 56t12.5 67.5t2 83.5zM274 1489z" />
<glyph unicode="K" horiz-adv-x="1226" d="M582 799l682 -799h-224l-600 702l-116 -100v-602h-179v1495h179v-725l637 725h233zM614 0z" />
<glyph unicode="L" horiz-adv-x="978" d="M147 1495h179v-1339h655l-10 -156h-824v1495zM479 0z" />
<glyph unicode="M" horiz-adv-x="1783" d="M315 1182v-1182h-165v1495h192l557 -1149l553 1149h184v-1495h-166v1176l-473 -994h-200z" />
<glyph unicode="N" horiz-adv-x="1486" d="M1341 0h-196l-832 1239v-1239h-166v1495h195l836 -1241v1241h163v-1495zM743 0z" />
<glyph unicode="O" horiz-adv-x="1656" d="M829 1372q-264 0 -402 -168.5t-138 -458.5q0 -132 32 -242t96 -194.5t169 -132t243 -47.5t243 47.5t168.5 132t95.5 194.5t32 242q0 288 -138 457.5t-401 169.5zM829 -23q-141 0 -259.5 38t-205 106.5t-147 164t-90 211.5t-29.5 248q0 233 85.5 408.5t251.5 274t394 98.5 t394 -98.5t251 -274t85 -408.5q0 -165 -47.5 -305t-137.5 -243.5t-229.5 -161.5t-315.5 -58zM829 1489z" />
<glyph unicode="P" horiz-adv-x="1157" d="M584 778q71 0 127 10t94 25.5t65.5 40.5t42.5 50t23.5 59t11 62t2.5 65q0 126 -85.5 186.5t-231.5 60.5h-309v-557q192 -2 260 -2zM324 0h-179v1495h484q87 0 161.5 -14t138 -44.5t107.5 -76.5t69 -113.5t25 -152.5q0 -87 -16 -156t-55 -129t-102.5 -99.5t-161.5 -62 t-228 -22.5q-66 0 -243 14v-639z" />
<glyph unicode="Q" horiz-adv-x="1656" d="M1268 -469q-49 49 -159.5 194.5t-166.5 258.5l14 6q15 7 35 15.5t44 16t43 9.5t32 -4q43 -94 138 -216.5t136 -160.5zM829 1372q-264 0 -402 -168.5t-138 -458.5q0 -132 32 -242t96 -194.5t169 -132t243 -47.5t243 47.5t168.5 132t95.5 194.5t32 242q0 288 -138 457.5 t-401 169.5zM829 -23q-141 0 -259.5 38t-205 106.5t-147 164t-90 211.5t-29.5 248q0 233 85.5 408.5t251.5 274t394 98.5t394 -98.5t251 -274t85 -408.5q0 -165 -47.5 -305t-137.5 -243.5t-229.5 -161.5t-315.5 -58zM829 1489z" />
<glyph unicode="R" horiz-adv-x="1337" d="M324 1341v-499l356 -4q133 -1 210.5 29t107.5 86t30 149q0 121 -70.5 180t-236.5 59h-397zM1272 0h-201l-203 465q-80 179 -106 223q-58 -4 -172 -4l-266 8v-692h-177v1495h474q96 0 167 -5.5t141 -20t117 -42t84 -70t54.5 -105.5t17.5 -146q0 -143 -70.5 -243.5 t-211.5 -137.5q-1 0 18.5 -33.5t48 -85t43.5 -84.5zM641 0z" />
<glyph unicode="S" horiz-adv-x="1226" d="M145 244l-51 -144q81 -49 220.5 -86t316.5 -37q238 0 376 114.5t138 340.5q0 90 -25.5 158.5t-75 116.5t-114.5 79t-152 52l-280 67q-111 27 -166.5 78.5t-55.5 136.5q0 252 363 252q112 0 221 -28.5t178 -65.5l52 139q-79 49 -198 79t-251 30q-256 0 -400.5 -102.5 t-144.5 -313.5q0 -277 336 -360l295 -74q136 -34 188 -93.5t52 -156.5q0 -297 -326 -297q-264 0 -496 115zM614 0z" />
<glyph unicode="T" horiz-adv-x="1064" d="M-2 1341v154h1071v-154h-448v-1341h-177v1341h-446zM532 745z" />
<glyph unicode="U" horiz-adv-x="1384" d="M688 -23q-128 0 -225 26t-160 72.5t-103 116t-56.5 149.5t-16.5 181v973h176v-967q0 -218 90.5 -310.5t294.5 -92.5q203 0 294 93t91 310v967h176v-973q0 -101 -16.5 -181t-56 -149.5t-102.5 -116t-160.5 -72.5t-225.5 -26zM1247 10z" />
<glyph unicode="V" horiz-adv-x="1263" d="M633 195q297 857 457 1300h186l-549 -1495h-190l-547 1495h190z" />
<glyph unicode="W" horiz-adv-x="2129" d="M1540 195l436 1300h183l-514 -1495h-209l-353 1225l-399 -1225h-209l-502 1495h183l430 -1298l391 1245h209zM1067 1489z" />
<glyph unicode="X" horiz-adv-x="1298" d="M10 0l527 780l-494 715h213l403 -602l431 602h190l-500 -715l508 -780h-205l-430 680l-446 -680h-197z" />
<glyph unicode="Y" horiz-adv-x="1241" d="M1243 1495l-557 -881v-614h-176v614l-510 881h186l424 -717l441 717h192zM621 1489z" />
<glyph unicode="Z" horiz-adv-x="1198" d="M1157 1495v-123l-842 -1216h834l-12 -156h-1047v139l832 1202h-797v154h1032zM600 1489z" />
<glyph unicode="[" horiz-adv-x="677" d="M569 -139v-121h-448v1765h448v-125h-270v-1519h270z" />
<glyph unicode="\" horiz-adv-x="933" d="M881 -121h-146l-653 1587h147z" />
<glyph unicode="]" horiz-adv-x="677" d="M109 -139h272v1519h-272v125h448v-1765h-448v121z" />
<glyph unicode="^" horiz-adv-x="1202" d="M227 627h-137l457 932h104l461 -932h-133l-383 747z" />
<glyph unicode="_" horiz-adv-x="1251" d="M1102 -156v-137h-952v137h952z" />
<glyph unicode="`" horiz-adv-x="641" d="M408 1251l-322 387h250l184 -387h-112zM303 1098z" />
<glyph unicode="a" horiz-adv-x="1044" d="M436 106q81 0 175.5 45.5t146.5 116.5v271q-99 -15 -101 -15q-237 -31 -320 -80t-83 -163q0 -88 49.5 -131.5t132.5 -43.5zM762 121q-129 -146 -342 -146q-144 0 -239 76.5t-95 222.5q0 191 171 276q101 50 325 83q20 4 61 9l1 1h1h2l111 12v125q0 102 -52.5 152.5 t-164.5 50.5q-89 0 -181 -20.5t-161 -53.5l-47 131q67 36 170.5 60t214.5 24q86 0 153 -15.5t121.5 -50.5t83.5 -98.5t29 -152.5v-807h-138zM932 10z" />
<glyph unicode="b" horiz-adv-x="1169" d="M629 -25q113 0 203 46.5t146.5 127.5t86 186t29.5 226q0 112 -30 212t-86 179t-145 125.5t-200 46.5q-98 0 -192 -47.5t-154 -146.5v579l-168 -18v-1491h166v164q51 -89 142 -139t202 -50zM616 113q-111 0 -187.5 61t-110 157t-33.5 220q0 192 95 312t241 122 q67 0 120.5 -26.5t86.5 -69t55 -101t30.5 -116.5t8.5 -121q0 -64 -9 -123t-31 -117.5t-56 -101.5t-88 -69.5t-122 -26.5z" />
<glyph unicode="c" horiz-adv-x="952" d="M903 76l-41 119q-116 -82 -248 -82q-163 0 -264.5 121t-101.5 311t101.5 315t252.5 125q142 0 258 -76l43 119q-46 45 -125.5 70.5t-173.5 25.5q-119 0 -219.5 -47t-166.5 -127t-102.5 -183.5t-37.5 -217.5q0 -92 21.5 -177t66 -157t106.5 -125.5t148 -84t186 -30.5 q85 0 165 26t132 75zM473 0z" />
<glyph unicode="d" horiz-adv-x="1171" d="M557 125q-82 0 -143.5 36.5t-96 99t-51 137t-16.5 159.5q0 79 17 150.5t51.5 133.5t95.5 99t141 37q85 0 150 -33t104 -92t58.5 -134.5t19.5 -166.5q0 -187 -84.5 -306.5t-245.5 -119.5zM547 -25q110 0 199.5 54.5t138.5 142.5l20 -172h150v1509l-168 -18v-553 q-42 86 -138 136t-208 50q-136 0 -242.5 -76t-163.5 -204t-57 -283q0 -172 54.5 -303.5t161.5 -207t253 -75.5zM586 549z" />
<glyph unicode="e" horiz-adv-x="1083" d="M582 -25q254 0 405 131l-51 123q-162 -110 -348 -110q-148 0 -243 108.5t-95 290.5h751q0 9 1.5 38.5t1.5 37.5q0 243 -119.5 386.5t-323.5 143.5q-215 -6 -349 -166t-134 -407q0 -265 135 -420.5t369 -155.5zM256 635q13 161 96.5 256.5t208.5 95.5q127 0 204 -91 t77 -261h-586zM977 10z" />
<glyph unicode="f" horiz-adv-x="638" d="M39 981v117h162v32q2 124 20 201t61.5 123.5t107.5 64t167 17.5h74l20 -127h-94q-53 0 -86.5 -10t-54.5 -27t-31 -54.5t-13 -77.5t-3 -110v-32h247v-117h-247v-981h-168v981h-162z" />
<glyph unicode="g" horiz-adv-x="1163" d="M324 -502l-23 152h205q73 0 129.5 10t97 27.5t68.5 47t45.5 62t27 81t12.5 95t3 111.5v96q-60 -87 -139 -133.5t-199 -46.5q-94 0 -173 32.5t-133 86.5t-92 125t-55.5 147.5t-17.5 153.5q0 119 29 222t86.5 183.5t152 127t215.5 46.5q203 0 332 -174v148h162v-1018 q0 -70 -3.5 -122.5t-17 -116.5t-36.5 -110.5t-64.5 -92.5t-99 -75t-142.5 -47t-192 -18h-178zM575 143q85 0 149 30t100 83t53.5 118t17.5 142v82q0 81 -18 148.5t-55 121t-99 83.5t-145 30q-68 0 -124 -26t-93 -69t-62 -99t-36 -114.5t-11 -117.5q0 -73 19.5 -144t57 -132 t101.5 -98.5t145 -37.5zM584 1098z" />
<glyph unicode="h" horiz-adv-x="1110" d="M283 0v748q22 85 118.5 159t216.5 74q69 0 113 -21t68 -69.5t32.5 -112t8.5 -162.5v-616h168v664q0 222 -83 341t-251 119q-248 0 -391 -176v561l-168 -18v-1491h168zM555 549z" />
<glyph unicode="i" horiz-adv-x="464" d="M328 1495v-197h-168v197h168zM328 1098v-1098h-168v1098h168z" />
<glyph unicode="j" horiz-adv-x="444" d="M330 1495v-197h-168v197h168zM330 1098v-1237q0 -105 -13.5 -170.5t-50.5 -111t-101 -63.5t-167 -18h-53l-23 152h53q30 0 54 2.5t43 6.5t32.5 13.5t23.5 18t16 25t10 30t5.5 38t2 43.5t0.5 52v1219h168z" />
<glyph unicode="k" horiz-adv-x="1005" d="M115 1491l168 18v-876l487 465h227l-469 -457l502 -641h-215l-414 563l-118 -102v-461h-168v1491zM498 0z" />
<glyph unicode="l" horiz-adv-x="548" d="M311 1509v-1079q0 -69 1 -107.5t5 -79.5t11.5 -60.5t21 -37t33.5 -23t49 -5.5q13 0 90 6l10 -131q-68 -12 -112 -12q-58 0 -100 9t-72.5 22.5t-50 47t-30.5 63.5t-16 92t-6.5 112t-1.5 143v1022zM553 1098z" />
<glyph unicode="m" horiz-adv-x="1771" d="M115 0h168v750q30 91 123.5 160t214.5 69q49 0 85 -17.5t58.5 -48.5t36.5 -78.5t19 -101.5t5 -125v-608h168v731q39 112 123 180t187 68q31 0 56 -6t44 -16t33.5 -28.5t24.5 -37t17.5 -47.5t11.5 -55t6 -65t2.5 -71.5t0.5 -79.5v-573h168v696q0 428 -338 428 q-247 0 -379 -202q-37 107 -113.5 154.5t-195.5 47.5q-107 0 -204 -48t-167 -142l-14 164h-145q0 -9 2 -117.5t2 -161.5v-819z" />
<glyph unicode="n" horiz-adv-x="1110" d="M662 1124q179 0 262.5 -116.5t83.5 -350.5v-657h-168v551q0 70 -1.5 114.5t-6 95t-13.5 80.5t-24.5 60t-38.5 45.5t-55.5 25t-75.5 9.5q-66 0 -127 -22t-103.5 -57t-72 -74.5t-39.5 -77.5v-750h-168v831l-4 267h145l14 -162q64 87 170.5 137.5t221.5 50.5zM555 0z" />
<glyph unicode="o" horiz-adv-x="1177" d="M928 547q0 91 -18 167t-55.5 138.5t-104 97.5t-156.5 35q-85 0 -152.5 -37t-108.5 -99.5t-62 -140t-21 -163.5q0 -85 21 -161t62.5 -137.5t109.5 -97.5t155 -36q86 0 151.5 36t103.5 98t56.5 137.5t18.5 162.5zM1102 549q0 -115 -33.5 -218t-96 -182.5t-160.5 -126.5 t-218 -47q-121 0 -220 45t-163 123t-98.5 181.5t-34.5 222.5q0 118 35 222.5t100 183.5t164.5 125t220.5 46q123 0 220 -45.5t158.5 -124.5t93.5 -182t32 -223zM590 1098z" />
<glyph unicode="p" horiz-adv-x="1165" d="M289 549q0 -92 17.5 -167.5t53.5 -135.5t98.5 -93.5t145.5 -33.5q82 0 145 38.5t98.5 102.5t53 137t17.5 152t-17.5 152.5t-53 137.5t-98.5 103t-145 39q-83 0 -145.5 -33.5t-98.5 -94t-53.5 -136.5t-17.5 -168zM123 -459v1557h158l10 -148q129 174 340 174q95 0 172 -31 t130 -84.5t88.5 -128t52 -160.5t16.5 -183q0 -150 -54 -277t-160 -206t-245 -79q-108 0 -196.5 46t-143.5 139v-596z" />
<glyph unicode="q" horiz-adv-x="1171" d="M887 551q0 -90 -19 -165.5t-57.5 -135.5t-102.5 -93.5t-149 -33.5q-68 0 -122.5 25t-88.5 66t-57 98t-32 115.5t-9 123.5q0 79 15.5 150.5t49 135.5t96 102t146.5 38t148.5 -33.5t103.5 -93t58.5 -135t19.5 -164.5zM539 -25q114 0 202.5 51.5t141.5 143.5v-629l168 21 v1536h-164v-160q-121 186 -336 186q-117 0 -209 -46.5t-149 -127.5t-86 -185.5t-29 -225.5q0 -112 29.5 -212.5t86 -179.5t145.5 -125.5t200 -46.5z" />
<glyph unicode="r" horiz-adv-x="653" d="M123 0h168v643q0 130 80 215.5t227 85.5h41l-12 154h-31q-216 0 -322 -191l-12 191h-141q0 -42 1 -125.5t1 -126.5v-846zM330 0z" />
<glyph unicode="s" horiz-adv-x="935" d="M854 295v4q0 133 -69 210.5t-207 113.5l-152 41q-85 22 -121.5 59.5t-36.5 91.5q0 83 59 129.5t152 46.5q142 0 281 -59l39 121q-139 71 -332 71q-89 -1 -160.5 -27.5t-115.5 -70.5t-67.5 -98t-23.5 -113q2 -108 66 -184t219 -119l145 -41q166 -47 166 -170v-10 q-7 -85 -63.5 -130.5t-151.5 -45.5h-16q-98 0 -180 30t-131 62l-43 -129q55 -41 159.5 -72t221.5 -31q160 0 259 84t103 236zM467 0z" />
<glyph unicode="t" horiz-adv-x="690" d="M358 981v-614q0 -155 29.5 -201.5t128.5 -46.5q7 0 137 10l15 -135q-175 -14 -191 -14q-57 0 -99.5 9t-73.5 24t-51.5 45t-33 62t-19 86.5t-8.5 106t-2 131.5v537h-167l14 117h153l43 354l125 10v-364h291v-117h-291zM362 549z" />
<glyph unicode="u" horiz-adv-x="1097" d="M109 367v731h167v-733q0 -72 20 -122.5t58.5 -78t86 -39.5t110.5 -12q62 0 108.5 12.5t84.5 40t57.5 78t19.5 121.5v733h168v-731q0 -105 -35.5 -182.5t-97.5 -122.5t-138.5 -66t-166.5 -21q-72 0 -135 13t-120 42.5t-98 74t-65 111.5t-24 151zM989 10z" />
<glyph unicode="v" horiz-adv-x="1034" d="M432 0l-432 1098h178l346 -914l328 914h178l-428 -1098h-170z" />
<glyph unicode="w" horiz-adv-x="1617" d="M14 1098h174l244 -875l291 875h197l278 -871l236 871h170l-328 -1098h-166l-293 928l-305 -928h-170zM811 1098z" />
<glyph unicode="x" horiz-adv-x="1040" d="M823 1098h195l-393 -545l393 -553h-182l-310 438l-309 -438h-192l401 555l-391 543h192l297 -416z" />
<glyph unicode="y" horiz-adv-x="1011" d="M180 1098h-176l426 -1075q-31 -92 -51.5 -145.5t-47 -100.5t-48.5 -68t-59.5 -36.5t-76 -19t-102.5 -3.5h-29l21 -152h51q76 0 138.5 14.5t111 45t85.5 67.5t68.5 92.5t54.5 108.5t48 127l399 1145h-178q-203 -630 -289 -891zM510 1098z" />
<glyph unicode="z" horiz-adv-x="860" d="M86 139v-139h737v135h-551l531 830v133h-723v-133h530zM436 1098z" />
<glyph unicode="{" horiz-adv-x="688" d="M287 688q81 -40 113 -123.5t32 -175.5v-233q0 -45 0.5 -69t2.5 -55t5.5 -45.5t11 -33t17.5 -26t26 -15.5t36 -10t47 -2v-138q-162 0 -234 67.5t-72 223.5v283q0 41 -1 66.5t-4 62t-11.5 59.5t-21 45.5t-34 33.5t-50.5 11h-62v150h62q29 0 50.5 11t34 33.5t21 45.5 t11.5 59.5t4 62t1 66.5v283q0 156 72 223.5t234 67.5v-137q-27 0 -47 -2t-36 -10t-26 -15.5t-17.5 -26t-11 -33t-5.5 -45.5t-2.5 -55t-0.5 -69v-236q0 -92 -32 -175.5t-113 -123.5z" />
<glyph unicode="|" horiz-adv-x="468" d="M309 1604v-1907h-149v1907h149z" />
<glyph unicode="}" horiz-adv-x="698" d="M412 688q-81 40 -113.5 123.5t-32.5 175.5v236q0 45 -0.5 69.5t-2.5 55t-6 45.5t-11 33t-17.5 25.5t-26.5 15t-36 10t-47 2.5v137q162 0 234.5 -67.5t72.5 -223.5v-283q0 -47 1.5 -79.5t9 -73t20 -65.5t36.5 -42.5t58 -17.5h59v-150h-59q-34 0 -58 -17.5t-36.5 -42.5 t-20 -65.5t-9 -73t-1.5 -79.5v-283q0 -156 -72.5 -223.5t-234.5 -67.5v138q27 0 47 2.5t36 10t26.5 15t17.5 25.5t11 33t6 45.5t2.5 55t0.5 69.5v233q0 92 32.5 175.5t113.5 123.5z" />
<glyph unicode="~" horiz-adv-x="1339" d="M434 760q53 0 127.5 -27t136.5 -59t125 -59t95 -27q65 0 113 56t67 134l110 -41q-26 -136 -99.5 -215.5t-193.5 -79.5q-52 0 -144.5 43t-186 86t-148.5 43q-77 0 -128.5 -58t-67.5 -140l-103 57q22 121 98.5 204t198.5 83z" />
<glyph unicode="&#xa2;" horiz-adv-x="1079" d="M889 371q-134 -64 -252 -64v879q114 -3 250 -74l43 119q-146 89 -293 92v180h-88v-186q-132 -20 -234 -100.5t-157 -202.5t-56 -266q0 -220 121.5 -383t325.5 -189v-170h88v168q140 6 293 90zM549 315q-88 17 -152.5 82.5t-94.5 155.5t-30 192q0 159 73.5 284t203.5 149 v-863z" />
<glyph unicode="&#xa3;" horiz-adv-x="1126" d="M102 707v143h174v86q0 73 4 130.5t15.5 121t31.5 111t53.5 92t79 73t111 45.5t146.5 17q227 0 352 -176l-94 -109q-57 67 -117 99t-141 32q-264 0 -264 -364v-158h399v-143h-399v-177q0 -271 -105 -378q83 10 88 10h615l-13 -162h-903l-22 137q96 51 129.5 127t33.5 203 v240h-174z" />
<glyph unicode="&#xa5;" horiz-adv-x="1128" d="M639 330v-330h-152v330h-391v123h391v192h-387v123h351l-416 727h178l352 -621l361 621h170l-430 -727h348v-123h-375v-192h379v-123h-379z" />
<glyph unicode="&#xa8;" horiz-adv-x="768" d="M272 1253h-153v213h153v-213zM664 1253h-156v213h156v-213zM391 1098z" />
<glyph unicode="&#xa9;" horiz-adv-x="1839" d="M1192 459l39 -107q-55 -35 -143 -58.5t-179 -23.5q-207 0 -341 145.5t-134 368.5q0 225 134.5 370.5t351.5 145.5q178 0 307 -90l-60 -96q-45 32 -116 50t-142 18q-85 0 -151 -32t-106.5 -87t-61.5 -125t-21 -150q0 -178 91.5 -289.5t269.5 -111.5q68 0 144 21t118 51z M901 68q132 0 244 36.5t192.5 101t137.5 153.5t84.5 195t27.5 224q0 147 -45 276t-129.5 227t-217.5 155t-298 57q-156 0 -284 -57t-211 -154.5t-128 -226t-45 -273.5q0 -148 45 -277.5t128.5 -227t212 -153.5t286.5 -56zM1702 780q0 -157 -43.5 -290t-119 -227.5 t-177 -160.5t-218.5 -97.5t-243 -31.5q-119 0 -231.5 31.5t-213 98t-176 160t-119.5 227t-44 290.5q0 156 43.5 289t118.5 227t174.5 160t212 97.5t231.5 31.5q126 0 243.5 -32t219.5 -98t178 -160t120 -226.5t44 -288.5z" />
<glyph unicode="&#xab;" horiz-adv-x="980" d="M463 584l262 397h139l-231 -397l225 -402h-135zM119 584l243 397h166l-258 -397l250 -402h-164z" />
<glyph unicode="&#xad;" horiz-adv-x="684" d="M88 520v144h510v-144h-510z" />
<glyph unicode="&#xae;" horiz-adv-x="1822" d="M913 717h-182v-416h-133v977h258q444 0 444 -270q0 -107 -61 -181t-199 -92q33 -26 65 -69.5t56.5 -86.5t71.5 -127t88 -151h-150l-124 223q-32 57 -48.5 85.5t-40 59t-45.5 48.5zM856 844q148 0 216.5 32.5t68.5 122.5q0 94 -63 122t-230 28h-117v-305h125zM901 68 q132 0 244 36.5t192.5 101t137.5 153.5t84.5 195t27.5 224q0 147 -45 276t-129.5 227t-217.5 155t-298 57q-156 0 -284 -57t-211 -154.5t-128 -226t-45 -273.5q0 -148 45 -277.5t128.5 -227t212 -153.5t286.5 -56zM1702 780q0 -157 -43.5 -290t-119 -227.5t-177 -160.5 t-218.5 -97.5t-243 -31.5q-119 0 -231.5 31.5t-213 98t-176 160t-119.5 227t-44 290.5q0 156 43.5 289t118.5 227t174.5 160t212 97.5t231.5 31.5q126 0 243.5 -32t219.5 -98t178 -160t120 -226.5t44 -288.5z" />
<glyph unicode="&#xb4;" horiz-adv-x="638" d="M567 1638l-325 -389h-115l186 389h254zM348 1098z" />
<glyph unicode="&#xb8;" horiz-adv-x="595" d="M115 -403l8 92q98 -27 133 -27q100 0 100 78q0 80 -98 80q-1 0 -5.5 -0.5t-12 -1t-13.5 -0.5l-28 -2l26 200h86l-12 -112h6q75 0 125.5 -40.5t50.5 -119.5q0 -83 -59 -126.5t-154 -43.5q-51 0 -153 23zM299 0z" />
<glyph unicode="&#xbb;" horiz-adv-x="1005" d="M528 586l-266 -404h-137l231 404l-227 395h137zM895 586l-242 -404h-161l251 404l-241 395h157z" />
<glyph unicode="&#xd3;" horiz-adv-x="1660" d="M829 1372q-264 0 -402 -168.5t-138 -458.5q0 -132 32 -242t96 -194.5t169 -132t243 -47.5t243 47.5t168.5 132t95.5 194.5t32 242q0 288 -138 457.5t-401 169.5zM829 -23q-141 0 -259.5 38t-205 106.5t-147 164t-90 211.5t-29.5 248q0 233 85.5 408.5t251.5 274t394 98.5 t394 -98.5t251 -274t85 -408.5q0 -165 -47.5 -305t-137.5 -243.5t-229.5 -161.5t-315.5 -58zM1051 2030l-326 -390h-115l187 390h254zM831 1489z" />
<glyph unicode="&#xf3;" horiz-adv-x="1181" d="M811 1638l-326 -389h-114l186 389h254zM928 547q0 91 -18 167t-55.5 138.5t-104 97.5t-156.5 35q-85 0 -152.5 -37t-108.5 -99.5t-62 -140t-21 -163.5q0 -85 21 -161t62.5 -137.5t109.5 -97.5t155 -36q86 0 151.5 36t103.5 98t56.5 137.5t18.5 162.5zM1102 549 q0 -115 -33.5 -218t-96 -182.5t-160.5 -126.5t-218 -47q-121 0 -220 45t-163 123t-98.5 181.5t-34.5 222.5q0 118 35 222.5t100 183.5t164.5 125t220.5 46q123 0 220 -45.5t158.5 -124.5t93.5 -182t32 -223zM590 1098z" />
<glyph unicode="&#x100;" horiz-adv-x="1300" d="M901 1666h-501v143h501v-143zM420 610h479l-227 713zM1122 0l-164 473h-593l-179 -473h-180l557 1495h213l527 -1495h-181zM1176 10z" />
<glyph unicode="&#x101;" horiz-adv-x="1026" d="M436 106q81 0 175.5 45.5t146.5 116.5v271q-99 -15 -101 -15q-237 -31 -320 -80t-83 -163q0 -88 49.5 -131.5t132.5 -43.5zM762 121q-129 -146 -342 -146q-144 0 -239 76.5t-95 222.5q0 191 171 276q101 50 325 83q20 4 61 9l1 1h1h2l111 12v125q0 102 -52.5 152.5 t-164.5 50.5q-89 0 -181 -20.5t-161 -53.5l-47 131q67 36 170.5 60t214.5 24q86 0 153 -15.5t121.5 -50.5t83.5 -98.5t29 -152.5v-807h-138zM764 1275h-501v143h501v-143zM513 1098z" />
<glyph unicode="&#x102;" horiz-adv-x="1300" d="M649 1690q-100 0 -175 68t-75 190h117q0 -69 37 -105.5t96 -36.5t97 36.5t38 105.5h119q0 -122 -76 -190t-178 -68zM420 610h479l-227 713zM1122 0l-164 473h-593l-179 -473h-180l557 1495h213l527 -1495h-181zM1176 10z" />
<glyph unicode="&#x103;" horiz-adv-x="1026" d="M512 1298q-100 0 -175 68t-75 190h117q0 -69 37 -105t96 -36t97 36t38 105h119q0 -122 -76 -190t-178 -68zM436 106q81 0 175.5 45.5t146.5 116.5v271q-99 -15 -101 -15q-237 -31 -320 -80t-83 -163q0 -88 49.5 -131.5t132.5 -43.5zM762 121q-129 -146 -342 -146 q-144 0 -239 76.5t-95 222.5q0 191 171 276q101 50 325 83q20 4 61 9l1 1h1h2l111 12v125q0 102 -52.5 152.5t-164.5 50.5q-89 0 -181 -20.5t-161 -53.5l-47 131q67 36 170.5 60t214.5 24q86 0 153 -15.5t121.5 -50.5t83.5 -98.5t29 -152.5v-807h-138zM932 10z" />
<glyph unicode="&#x104;" horiz-adv-x="1300" d="M1034 -303q53 0 137 33v-117q-80 -33 -157 -33q-85 0 -139 46t-54 130q0 139 191 248h114q-88 -66 -134 -118t-46 -99q0 -38 27.5 -64t60.5 -26zM420 610h479l-227 713zM1122 0l-164 473h-593l-179 -473h-180l557 1495h213l527 -1495h-181zM1176 10z" />
<glyph unicode="&#x105;" horiz-adv-x="1026" d="M788 -303q54 0 138 33v-117q-80 -33 -158 -33q-85 0 -139 46t-54 130q0 139 191 248h115q-88 -66 -134.5 -118t-46.5 -99q0 -38 27.5 -64t60.5 -26zM436 106q81 0 175.5 45.5t146.5 116.5v271q-99 -15 -101 -15q-237 -31 -320 -80t-83 -163q0 -88 49.5 -131.5 t132.5 -43.5zM762 121q-129 -146 -342 -146q-144 0 -239 76.5t-95 222.5q0 191 171 276q101 50 325 83q20 4 61 9l1 1h1h2l111 12v125q0 102 -52.5 152.5t-164.5 50.5q-89 0 -181 -20.5t-161 -53.5l-47 131q67 36 170.5 60t214.5 24q86 0 153 -15.5t121.5 -50.5t83.5 -98.5 t29 -152.5v-807h-138zM932 10z" />
<glyph unicode="&#x106;" horiz-adv-x="1282" d="M862 2030l-325 -390h-115l186 390h254zM813 1526q272 0 438 -137l-63 -136q-67 53 -163 86t-206 33q-131 0 -234.5 -51t-167 -138.5t-96 -199t-32.5 -238.5q0 -98 18 -186t59 -167.5t102.5 -137t154 -91.5t206.5 -34q106 0 199 34.5t160 88.5l57 -146 q-144 -129 -430 -129q-171 0 -309 60t-226 165t-135 244t-47 299q0 166 47.5 308.5t136.5 247.5t225.5 165t305.5 60zM639 0z" />
<glyph unicode="&#x107;" horiz-adv-x="960" d="M700 1638l-325 -389h-115l186 389h254zM903 76l-41 119q-116 -82 -248 -82q-163 0 -264.5 121t-101.5 311t101.5 315t252.5 125q142 0 258 -76l43 119q-46 45 -125.5 70.5t-173.5 25.5q-119 0 -219.5 -47t-166.5 -127t-102.5 -183.5t-37.5 -217.5q0 -92 21.5 -177 t66 -157t106.5 -125.5t148 -84t186 -30.5q85 0 165 26t132 75zM473 0z" />
<glyph unicode="&#x108;" horiz-adv-x="1282" d="M348 1642l187 388h213l186 -388h-133l-162 273l-160 -273h-131zM813 1526q272 0 438 -137l-63 -136q-67 53 -163 86t-206 33q-131 0 -234.5 -51t-167 -138.5t-96 -199t-32.5 -238.5q0 -98 18 -186t59 -167.5t102.5 -137t154 -91.5t206.5 -34q106 0 199 34.5t160 88.5 l57 -146q-144 -129 -430 -129q-171 0 -309 60t-226 165t-135 244t-47 299q0 166 47.5 308.5t136.5 247.5t225.5 165t305.5 60zM639 0z" />
<glyph unicode="&#x109;" horiz-adv-x="960" d="M188 1251l187 387h213l186 -387h-133l-162 273l-160 -273h-131zM903 76l-41 119q-116 -82 -248 -82q-163 0 -264.5 121t-101.5 311t101.5 315t252.5 125q142 0 258 -76l43 119q-46 45 -125.5 70.5t-173.5 25.5q-119 0 -219.5 -47t-166.5 -127t-102.5 -183.5t-37.5 -217.5 q0 -92 21.5 -177t66 -157t106.5 -125.5t148 -84t186 -30.5q85 0 165 26t132 75zM473 0z" />
<glyph unicode="&#x10a;" horiz-adv-x="1282" d="M678 1890q62 0 97.5 -39t35.5 -92q0 -54 -35.5 -93.5t-97.5 -39.5t-97.5 39.5t-35.5 93.5q0 53 35.5 92t97.5 39zM813 1526q272 0 438 -137l-63 -136q-67 53 -163 86t-206 33q-131 0 -234.5 -51t-167 -138.5t-96 -199t-32.5 -238.5q0 -98 18 -186t59 -167.5t102.5 -137 t154 -91.5t206.5 -34q106 0 199 34.5t160 88.5l57 -146q-144 -129 -430 -129q-171 0 -309 60t-226 165t-135 244t-47 299q0 166 47.5 308.5t136.5 247.5t225.5 165t305.5 60zM639 0z" />
<glyph unicode="&#x10b;" horiz-adv-x="960" d="M502 1489q62 0 97.5 -39t35.5 -92q0 -54 -35.5 -93.5t-97.5 -39.5t-97.5 39.5t-35.5 93.5q0 53 35.5 92t97.5 39zM903 76l-41 119q-116 -82 -248 -82q-163 0 -264.5 121t-101.5 311t101.5 315t252.5 125q142 0 258 -76l43 119q-46 45 -125.5 70.5t-173.5 25.5 q-119 0 -219.5 -47t-166.5 -127t-102.5 -183.5t-37.5 -217.5q0 -92 21.5 -177t66 -157t106.5 -125.5t148 -84t186 -30.5q85 0 165 26t132 75zM473 0z" />
<glyph unicode="&#x10c;" horiz-adv-x="1282" d="M348 2030h131l160 -312l162 312h133l-186 -388h-213zM813 1526q272 0 438 -137l-63 -136q-67 53 -163 86t-206 33q-131 0 -234.5 -51t-167 -138.5t-96 -199t-32.5 -238.5q0 -98 18 -186t59 -167.5t102.5 -137t154 -91.5t206.5 -34q106 0 199 34.5t160 88.5l57 -146 q-144 -129 -430 -129q-171 0 -309 60t-226 165t-135 244t-47 299q0 166 47.5 308.5t136.5 247.5t225.5 165t305.5 60zM639 0z" />
<glyph unicode="&#x10d;" horiz-adv-x="960" d="M188 1638h131l160 -311l162 311h133l-186 -387h-213zM903 76l-41 119q-116 -82 -248 -82q-163 0 -264.5 121t-101.5 311t101.5 315t252.5 125q142 0 258 -76l43 119q-46 45 -125.5 70.5t-173.5 25.5q-119 0 -219.5 -47t-166.5 -127t-102.5 -183.5t-37.5 -217.5 q0 -92 21.5 -177t66 -157t106.5 -125.5t148 -84t186 -30.5q85 0 165 26t132 75zM473 0z" />
<glyph unicode="&#x10e;" horiz-adv-x="1521" d="M469 2030h131l160 -312l162 312h133l-187 -388h-213zM324 1341v-1185h315q280 0 432 145.5t152 431.5q0 139 -32 244t-89.5 173.5t-144 111.5t-187.5 61t-229 18h-217zM147 0v1495h371q161 0 292 -23t245 -77.5t191 -140.5t121 -216.5t44 -300.5q0 -183 -57 -324.5 t-162 -231.5t-249 -135.5t-322 -45.5h-474zM762 745z" />
<glyph unicode="&#x10f;" horiz-adv-x="1173" d="M1481 1509l-125 -522h-107l21 522h211zM557 125q-82 0 -143.5 36.5t-96 99t-51 137t-16.5 159.5q0 79 17 150.5t51.5 133.5t95.5 99t141 37q85 0 150 -33t104 -92t58.5 -134.5t19.5 -166.5q0 -187 -84.5 -306.5t-245.5 -119.5zM547 -25q110 0 199.5 54.5t138.5 142.5 l20 -172h150v1509l-168 -18v-553q-42 86 -138 136t-208 50q-136 0 -242.5 -76t-163.5 -204t-57 -283q0 -172 54.5 -303.5t161.5 -207t253 -75.5zM586 549z" />
<glyph unicode="&#x110;" horiz-adv-x="1521" d="M29 696v135h536v-135h-536zM324 1341v-1185h315q280 0 432 145.5t152 431.5q0 139 -32 244t-89.5 173.5t-144 111.5t-187.5 61t-229 18h-217zM147 0v1495h371q161 0 292 -23t245 -77.5t191 -140.5t121 -216.5t44 -300.5q0 -183 -57 -324.5t-162 -231.5t-249 -135.5 t-322 -45.5h-474zM762 745z" />
<glyph unicode="&#x111;" horiz-adv-x="1173" d="M557 125q-82 0 -143.5 36.5t-96 99t-51 137t-16.5 159.5q0 79 17 150.5t51.5 133.5t95.5 99t141 37q85 0 150 -33t104 -92t58.5 -134.5t19.5 -166.5q0 -187 -84.5 -306.5t-245.5 -119.5zM885 172l20 -172h150v1243h119v109h-119v157l-168 -18v-139h-250v-109h250v-305 q-42 86 -138 136t-208 50q-136 0 -242.5 -76t-163.5 -204t-57 -283q0 -172 54.5 -303.5t161.5 -207t253 -75.5q110 0 199.5 54.5t138.5 142.5z" />
<glyph unicode="&#x112;" horiz-adv-x="1138" d="M821 1666h-501v143h501v-143zM987 846v-154h-663v-536h735l-17 -156h-895v1495h881l-12 -154h-692v-495h663zM1026 10z" />
<glyph unicode="&#x113;" horiz-adv-x="1087" d="M795 1275h-501v143h501v-143zM582 -25q254 0 405 131l-51 123q-162 -110 -348 -110q-148 0 -243 108.5t-95 290.5h751q0 9 1.5 38.5t1.5 37.5q0 243 -119.5 386.5t-323.5 143.5q-215 -6 -349 -166t-134 -407q0 -265 135 -420.5t369 -155.5zM256 635q13 161 96.5 256.5 t208.5 95.5q127 0 204 -91t77 -261h-586zM977 10z" />
<glyph unicode="&#x116;" horiz-adv-x="1138" d="M602 1890q62 0 97.5 -39t35.5 -92q0 -54 -35.5 -93.5t-97.5 -39.5t-97.5 39.5t-35.5 93.5q0 53 35.5 92t97.5 39zM987 846v-154h-663v-536h735l-17 -156h-895v1495h881l-12 -154h-692v-495h663zM1026 10z" />
<glyph unicode="&#x117;" horiz-adv-x="1087" d="M547 1489q62 0 97.5 -39t35.5 -92q0 -54 -35.5 -93.5t-97.5 -39.5t-97.5 39.5t-35.5 93.5q0 53 35.5 92t97.5 39zM582 -25q254 0 405 131l-51 123q-162 -110 -348 -110q-148 0 -243 108.5t-95 290.5h751q0 9 1.5 38.5t1.5 37.5q0 243 -119.5 386.5t-323.5 143.5 q-215 -6 -349 -166t-134 -407q0 -265 135 -420.5t369 -155.5zM256 635q13 161 96.5 256.5t208.5 95.5q127 0 204 -91t77 -261h-586zM977 10z" />
<glyph unicode="&#x118;" horiz-adv-x="1138" d="M987 846v-154h-663v-536h735l-17 -156h-895v1495h881l-12 -154h-692v-495h663zM889 -303q53 0 137 33v-117q-80 -33 -158 -33q-85 0 -138.5 46t-53.5 130q0 139 190 248h115q-88 -66 -134 -118t-46 -99q0 -38 27.5 -64t60.5 -26zM1026 10z" />
<glyph unicode="&#x119;" horiz-adv-x="1087" d="M582 -25q254 0 405 131l-51 123q-162 -110 -348 -110q-148 0 -243 108.5t-95 290.5h751q0 9 1.5 38.5t1.5 37.5q0 243 -119.5 386.5t-323.5 143.5q-215 -6 -349 -166t-134 -407q0 -265 135 -420.5t369 -155.5zM256 635q13 161 96.5 256.5t208.5 95.5q127 0 204 -91 t77 -261h-586zM846 -303q53 0 137 33v-117q-80 -33 -158 -33q-85 0 -138.5 46t-53.5 130q0 139 190 248h115q-88 -66 -134 -118t-46 -99q0 -38 27.5 -64t60.5 -26zM983 10z" />
<glyph unicode="&#x11a;" horiz-adv-x="1138" d="M987 846v-154h-663v-536h735l-17 -156h-895v1495h881l-12 -154h-692v-495h663zM276 2030h132l159 -312l162 312h133l-186 -388h-213zM569 1489z" />
<glyph unicode="&#x11b;" horiz-adv-x="1087" d="M582 -25q254 0 405 131l-51 123q-162 -110 -348 -110q-148 0 -243 108.5t-95 290.5h751q0 9 1.5 38.5t1.5 37.5q0 243 -119.5 386.5t-323.5 143.5q-215 -6 -349 -166t-134 -407q0 -265 135 -420.5t369 -155.5zM256 635q13 161 96.5 256.5t208.5 95.5q127 0 204 -91 t77 -261h-586zM254 1638h131l160 -311l162 311h133l-187 -387h-213zM547 1098z" />
<glyph unicode="&#x11c;" horiz-adv-x="1431" d="M424 1642l186 388h213l187 -388h-133l-162 273l-160 -273h-131zM811 -23q145 0 262 33t248 113v641h-512l-12 -150h370v-395q-55 -34 -152.5 -62t-185.5 -28q-111 0 -201.5 32.5t-152 88.5t-104 134.5t-61.5 168.5t-19 192q0 101 19 192t61.5 171t104 138.5t152 92 t201.5 33.5q103 0 209 -38t172 -91l66 137q-182 146 -461 146q-175 0 -313.5 -62.5t-225 -171t-131.5 -248t-45 -299.5q0 -156 45.5 -293.5t132 -244t224 -168.5t309.5 -62zM717 0z" />
<glyph unicode="&#x11d;" horiz-adv-x="1165" d="M291 1251l186 387h213l187 -387h-134l-161 273l-160 -273h-131zM324 -502l-23 152h205q73 0 129.5 10t97 27.5t68.5 47t45.5 62t27 81t12.5 95t3 111.5v96q-60 -87 -139 -133.5t-199 -46.5q-94 0 -173 32.5t-133 86.5t-92 125t-55.5 147.5t-17.5 153.5q0 119 29 222 t86.5 183.5t152 127t215.5 46.5q203 0 332 -174v148h162v-1018q0 -70 -3.5 -122.5t-17 -116.5t-36.5 -110.5t-64.5 -92.5t-99 -75t-142.5 -47t-192 -18h-178zM575 143q85 0 149 30t100 83t53.5 118t17.5 142v82q0 81 -18 148.5t-55 121t-99 83.5t-145 30q-68 0 -124 -26 t-93 -69t-62 -99t-36 -114.5t-11 -117.5q0 -73 19.5 -144t57 -132t101.5 -98.5t145 -37.5zM584 1098z" />
<glyph unicode="&#x11e;" horiz-adv-x="1431" d="M715 1690q-100 0 -175 68t-75 190h117q0 -69 37 -105.5t96 -36.5t97 36.5t38 105.5h119q0 -122 -76 -190t-178 -68zM811 -23q145 0 262 33t248 113v641h-512l-12 -150h370v-395q-55 -34 -152.5 -62t-185.5 -28q-111 0 -201.5 32.5t-152 88.5t-104 134.5t-61.5 168.5 t-19 192q0 101 19 192t61.5 171t104 138.5t152 92t201.5 33.5q103 0 209 -38t172 -91l66 137q-182 146 -461 146q-175 0 -313.5 -62.5t-225 -171t-131.5 -248t-45 -299.5q0 -156 45.5 -293.5t132 -244t224 -168.5t309.5 -62zM717 0z" />
<glyph unicode="&#x11f;" horiz-adv-x="1165" d="M582 1298q-100 0 -175 68t-75 190h117q0 -69 37 -105t96 -36t97 36t38 105h119q0 -122 -76 -190t-178 -68zM324 -502l-23 152h205q73 0 129.5 10t97 27.5t68.5 47t45.5 62t27 81t12.5 95t3 111.5v96q-60 -87 -139 -133.5t-199 -46.5q-94 0 -173 32.5t-133 86.5t-92 125 t-55.5 147.5t-17.5 153.5q0 119 29 222t86.5 183.5t152 127t215.5 46.5q203 0 332 -174v148h162v-1018q0 -70 -3.5 -122.5t-17 -116.5t-36.5 -110.5t-64.5 -92.5t-99 -75t-142.5 -47t-192 -18h-178zM575 143q85 0 149 30t100 83t53.5 118t17.5 142v82q0 81 -18 148.5 t-55 121t-99 83.5t-145 30q-68 0 -124 -26t-93 -69t-62 -99t-36 -114.5t-11 -117.5q0 -73 19.5 -144t57 -132t101.5 -98.5t145 -37.5zM584 1098z" />
<glyph unicode="&#x120;" horiz-adv-x="1431" d="M711 1890q62 0 97.5 -39t35.5 -92q0 -54 -35.5 -93.5t-97.5 -39.5t-97.5 39.5t-35.5 93.5q0 53 35.5 92t97.5 39zM811 -23q145 0 262 33t248 113v641h-512l-12 -150h370v-395q-55 -34 -152.5 -62t-185.5 -28q-111 0 -201.5 32.5t-152 88.5t-104 134.5t-61.5 168.5 t-19 192q0 101 19 192t61.5 171t104 138.5t152 92t201.5 33.5q103 0 209 -38t172 -91l66 137q-182 146 -461 146q-175 0 -313.5 -62.5t-225 -171t-131.5 -248t-45 -299.5q0 -156 45.5 -293.5t132 -244t224 -168.5t309.5 -62zM717 0z" />
<glyph unicode="&#x121;" horiz-adv-x="1165" d="M569 1489q62 0 97.5 -39t35.5 -92q0 -54 -35.5 -93.5t-97.5 -39.5t-97.5 39.5t-35.5 93.5q0 53 35.5 92t97.5 39zM324 -502l-23 152h205q73 0 129.5 10t97 27.5t68.5 47t45.5 62t27 81t12.5 95t3 111.5v96q-60 -87 -139 -133.5t-199 -46.5q-94 0 -173 32.5t-133 86.5 t-92 125t-55.5 147.5t-17.5 153.5q0 119 29 222t86.5 183.5t152 127t215.5 46.5q203 0 332 -174v148h162v-1018q0 -70 -3.5 -122.5t-17 -116.5t-36.5 -110.5t-64.5 -92.5t-99 -75t-142.5 -47t-192 -18h-178zM575 143q85 0 149 30t100 83t53.5 118t17.5 142v82 q0 81 -18 148.5t-55 121t-99 83.5t-145 30q-68 0 -124 -26t-93 -69t-62 -99t-36 -114.5t-11 -117.5q0 -73 19.5 -144t57 -132t101.5 -98.5t145 -37.5zM584 1098z" />
<glyph unicode="&#x122;" horiz-adv-x="1431" d="M811 -23q145 0 262 33t248 113v641h-512l-12 -150h370v-395q-55 -34 -152.5 -62t-185.5 -28q-111 0 -201.5 32.5t-152 88.5t-104 134.5t-61.5 168.5t-19 192q0 101 19 192t61.5 171t104 138.5t152 92t201.5 33.5q103 0 209 -38t172 -91l66 137q-182 146 -461 146 q-175 0 -313.5 -62.5t-225 -171t-131.5 -248t-45 -299.5q0 -156 45.5 -293.5t132 -244t224 -168.5t309.5 -62zM580 -623l95 498h165l-144 -498h-116z" />
<glyph unicode="&#x123;" horiz-adv-x="1267" d="M324 -502l-23 152h205q73 0 129.5 10t97 27.5t68.5 47t45.5 62t27 81t12.5 95t3 111.5v96q-60 -87 -139 -133.5t-199 -46.5q-94 0 -173 32.5t-133 86.5t-92 125t-55.5 147.5t-17.5 153.5q0 119 29 222t86.5 183.5t152 127t215.5 46.5q203 0 332 -174v148h162v-1018 q0 -70 -3.5 -122.5t-17 -116.5t-36.5 -110.5t-64.5 -92.5t-99 -75t-142.5 -47t-192 -18h-178zM575 143q85 0 149 30t100 83t53.5 118t17.5 142v82q0 81 -18 148.5t-55 121t-99 83.5t-145 30q-68 0 -124 -26t-93 -69t-62 -99t-36 -114.5t-11 -117.5q0 -73 19.5 -144t57 -132 t101.5 -98.5t145 -37.5zM793 1749l-111 -500h-195l166 500h140z" />
<glyph unicode="&#x124;" horiz-adv-x="1464" d="M1141 696h-817v-696h-177v1495h177v-647h817v647h178v-1495h-178v696zM440 1642l187 388h213l186 -388h-133l-162 273l-160 -273h-131zM733 1489z" />
<glyph unicode="&#x125;" horiz-adv-x="1112" d="M283 0v748q22 85 118.5 159t216.5 74q69 0 113 -21t68 -69.5t32.5 -112t8.5 -162.5v-616h168v664q0 222 -83 341t-251 119q-248 0 -391 -176v561l-168 -18v-1491h168zM264 1251l187 387h213l186 -387h-133l-162 273l-160 -273h-131zM557 1098z" />
<glyph unicode="&#x126;" horiz-adv-x="1462" d="M1141 696h-817v-696h-177v1147h-90v104h90v244h177v-244h817v244h178v-244h90v-104h-90v-1147h-178v696zM324 1147v-299h817v299h-817z" />
<glyph unicode="&#x127;" horiz-adv-x="1114" d="M283 748q22 85 118.5 159t216.5 74q69 0 113 -21t68 -69.5t32.5 -112t8.5 -162.5v-616h168v664q0 222 -83 341t-251 119q-248 0 -391 -176v295h274v109h-274v157l-168 -18v-139h-95v-109h95v-1243h168v748z" />
<glyph unicode="&#x128;" d="M340 1495v-1495h-176v1495h176zM49 1681h-106q0 110 45 165t127 55q55 0 119.5 -23.5t112.5 -47.5t61 -24h2q19 1 30 17.5t13.5 33t3.5 44.5h108q0 -220 -147 -220q-47 0 -160.5 49.5t-151.5 49.5h-2q-24 0 -38.5 -28t-16.5 -71zM254 1489z" />
<glyph unicode="&#x129;" horiz-adv-x="428" d="M303 1098v-1098h-168v1098h168zM10 1290h-106q0 110 45 164.5t127 54.5q55 0 119.5 -23.5t112.5 -47t61 -23.5h2q19 1 30 17t13.5 32.5t3.5 44.5h108q0 -219 -147 -219q-47 0 -160 49.5t-151 49.5h-2q-24 0 -39 -28t-17 -71zM215 1098z" />
<glyph unicode="&#x12a;" d="M340 1495v-1495h-176v1495h176zM506 1666h-501v143h501v-143zM255 1489z" />
<glyph unicode="&#x12b;" horiz-adv-x="428" d="M303 1098v-1098h-168v1098h168zM465 1275h-501v143h501v-143zM214 1098z" />
<glyph unicode="&#x12c;" d="M252 1690q-100 0 -175 68t-75 190h117q0 -69 37 -105.5t96 -36.5t97 36.5t38 105.5h119q0 -122 -76 -190t-178 -68zM340 1495v-1495h-176v1495h176zM459 10z" />
<glyph unicode="&#x12d;" horiz-adv-x="428" d="M213 1298q-100 0 -175 68t-75 190h117q0 -69 37 -105t96 -36t97 36t38 105h119q0 -122 -76 -190t-178 -68zM303 1098v-1098h-168v1098h168zM387 10z" />
<glyph unicode="&#x12e;" d="M340 1495v-1495h-176v1495h176zM322 -303q53 0 137 33v-117q-80 -33 -158 -33q-85 0 -138.5 46t-53.5 130q0 139 190 248h115q-88 -66 -134.5 -118t-46.5 -99q0 -38 28 -64t61 -26zM459 10z" />
<glyph unicode="&#x12f;" horiz-adv-x="442" d="M328 1495v-197h-168v197h168zM328 1098v-1098h-168v1098h168zM168 -301q53 0 137 33v-117q-80 -33 -158 -33q-85 0 -138.5 46t-53.5 130q0 139 190 248h115q-88 -66 -134 -118t-46 -99q0 -38 27.5 -64t60.5 -26zM305 12z" />
<glyph unicode="&#x130;" d="M340 1495v-1495h-176v1495h176zM244 1847q62 0 97.5 -39t35.5 -92q0 -54 -35.5 -93.5t-97.5 -39.5t-97.5 39.5t-35.5 93.5q0 53 35.5 92t97.5 39z" />
<glyph unicode="&#x131;" horiz-adv-x="428" d="M303 1098v-1098h-168v1098h168zM387 10z" />
<glyph unicode="&#x132;" horiz-adv-x="1462" d="M1133 410v1146h176v-1095q0 -68 -2 -115.5t-9 -99t-20 -85.5t-34 -67.5t-52.5 -54t-74.5 -37.5t-100 -24t-130 -7h-33v168h53q62 1 105 15.5t66.5 35t36 59t15.5 72t3 89.5zM334 1556v-1556h-178v1556h178z" />
<glyph unicode="&#x133;" horiz-adv-x="974" d="M817 1098v-918q0 -68 -1.5 -113t-7.5 -94t-17 -79.5t-30 -62.5t-46 -51.5t-66 -37.5t-89 -29.5t-116 -19.5l-8 -2v168h8q33 4 59.5 11t46.5 14.5t35 20.5t25.5 24t17.5 30.5t10.5 34t5.5 40t2.5 43.5t0.5 50v971h170zM326 1098v-1098h-170v1098h170zM326 1556v-196h-170 v196h170zM817 1556v-196h-170v196h170z" />
<glyph unicode="&#x134;" horiz-adv-x="548" d="M225 180v1315h178v-1253q0 -73 -3 -122.5t-12 -101.5t-26.5 -85t-45.5 -63t-69.5 -47t-98.5 -26.5t-132 -9.5h-34l-23 141h76q53 0 89.5 13t56 32t30 56t12.5 67.5t2 83.5zM-18 1642l186 388h213l186 -388h-133l-162 273l-159 -273h-131zM274 1489z" />
<glyph unicode="&#x135;" horiz-adv-x="442" d="M330 1098v-1237q0 -105 -13.5 -170.5t-50.5 -111t-101 -63.5t-167 -18h-53l-23 152h53q30 0 54 2.5t43 6.5t32.5 13.5t23.5 18t16 25t10 30t5.5 38t2 43.5t0.5 52v1219h168zM-72 1251l187 387h213l186 -387h-133l-162 273l-160 -273h-131zM221 1098z" />
<glyph unicode="&#x136;" horiz-adv-x="1226" d="M582 799l682 -799h-224l-600 702l-116 -100v-602h-179v1495h179v-725l637 725h233zM574 -601l95 498h165l-144 -498h-116z" />
<glyph unicode="&#x137;" horiz-adv-x="1005" d="M115 1491l168 18v-876l487 465h227l-469 -457l502 -641h-215l-414 563l-118 -102v-461h-168v1491zM443 -601l95 498h165l-144 -498h-116z" />
<glyph unicode="&#x138;" horiz-adv-x="1103" d="M823 0l-530 506v-506h-146v1106h146v-506l483 506h205l-522 -555q315 -291 555 -551h-191z" />
<glyph unicode="&#x139;" horiz-adv-x="958" d="M700 2030l-325 -390h-115l186 390h254zM147 1495h179v-1339h655l-10 -156h-824v1495zM479 0z" />
<glyph unicode="&#x13a;" horiz-adv-x="550" d="M496 1638l-326 -389h-115l187 389h254zM311 1509v-1079q0 -69 1 -107.5t5 -79.5t11.5 -60.5t21 -37t33.5 -23t49 -5.5q13 0 90 6l10 -131q-68 -12 -112 -12q-58 0 -100 9t-72.5 22.5t-50 47t-30.5 63.5t-16 92t-6.5 112t-1.5 143v1022zM553 1098z" />
<glyph unicode="&#x13b;" horiz-adv-x="958" d="M147 1495h179v-1339h655l-10 -156h-824v1495zM429 -601l95 498h165l-144 -498h-116z" />
<glyph unicode="&#x13c;" horiz-adv-x="550" d="M311 1509v-1079q0 -69 1 -107.5t5 -79.5t11.5 -60.5t21 -37t33.5 -23t49 -5.5q13 0 90 6l10 -131q-68 -12 -112 -12q-58 0 -100 9t-72.5 22.5t-50 47t-30.5 63.5t-16 92t-6.5 112t-1.5 143v1022zM240 -601l95 498h165l-144 -498h-116z" />
<glyph unicode="&#x13d;" horiz-adv-x="958" d="M147 1495h179v-1339h655l-10 -156h-824v1495zM897 1524l-125 -523h-106l20 523h211z" />
<glyph unicode="&#x13e;" horiz-adv-x="550" d="M311 1509v-1079q0 -69 1 -107.5t5 -79.5t11.5 -60.5t21 -37t33.5 -23t49 -5.5q13 0 90 6l10 -131q-68 -12 -112 -12q-58 0 -100 9t-72.5 22.5t-50 47t-30.5 63.5t-16 92t-6.5 112t-1.5 143v1022zM692 1464l-125 -522h-106l20 522h211z" />
<glyph unicode="&#x13f;" horiz-adv-x="958" d="M147 1495h179v-1339h655l-10 -156h-824v1495zM700 891q63 0 98 -39t35 -93t-35 -93t-98 -39q-62 0 -97.5 39.5t-35.5 92.5t35.5 92.5t97.5 39.5z" />
<glyph unicode="&#x140;" horiz-adv-x="550" d="M311 1509v-1079q0 -69 1 -107.5t5 -79.5t11.5 -60.5t21 -37t33.5 -23t49 -5.5q13 0 90 6l10 -131q-68 -12 -112 -12q-58 0 -100 9t-72.5 22.5t-50 47t-30.5 63.5t-16 92t-6.5 112t-1.5 143v1022zM825 793q63 0 98 -39t35 -93t-35 -93t-98 -39q-62 0 -97.5 39.5 t-35.5 92.5t35.5 92.5t97.5 39.5z" />
<glyph unicode="&#x141;" horiz-adv-x="958" d="M0 526v150l676 368v-155zM147 1495h179v-1339h655l-10 -156h-824v1495zM479 0z" />
<glyph unicode="&#x142;" horiz-adv-x="587" d="M487 985v-145l-456 -355v146zM311 1509v-1079q0 -69 1 -107.5t5 -79.5t11.5 -60.5t21 -37t33.5 -23t49 -5.5q13 0 90 6l10 -131q-68 -12 -112 -12q-58 0 -100 9t-72.5 22.5t-50 47t-30.5 63.5t-16 92t-6.5 112t-1.5 143v1022zM553 1098z" />
<glyph unicode="&#x143;" horiz-adv-x="1486" d="M965 2030l-326 -390h-115l187 390h254zM1341 0h-196l-832 1239v-1239h-166v1495h195l836 -1241v1241h163v-1495zM743 0z" />
<glyph unicode="&#x144;" horiz-adv-x="1114" d="M778 1638l-325 -389h-115l186 389h254zM662 1124q179 0 262.5 -116.5t83.5 -350.5v-657h-168v551q0 70 -1.5 114.5t-6 95t-13.5 80.5t-24.5 60t-38.5 45.5t-55.5 25t-75.5 9.5q-66 0 -127 -22t-103.5 -57t-72 -74.5t-39.5 -77.5v-750h-168v831l-4 267h145l14 -162 q64 87 170.5 137.5t221.5 50.5zM555 0z" />
<glyph unicode="&#x145;" horiz-adv-x="1486" d="M613 -601l95 498h165l-144 -498h-116zM1341 0h-196l-832 1239v-1239h-166v1495h195l836 -1241v1241h163v-1495zM743 0z" />
<glyph unicode="&#x146;" horiz-adv-x="1114" d="M662 1124q179 0 262.5 -116.5t83.5 -350.5v-657h-168v551q0 70 -1.5 114.5t-6 95t-13.5 80.5t-24.5 60t-38.5 45.5t-55.5 25t-75.5 9.5q-66 0 -127 -22t-103.5 -57t-72 -74.5t-39.5 -77.5v-750h-168v831l-4 267h145l14 -162q64 87 170.5 137.5t221.5 50.5zM433 -601 l95 498h165l-144 -498h-116z" />
<glyph unicode="&#x147;" horiz-adv-x="1486" d="M451 2030h131l159 -312l162 312h133l-186 -388h-213zM1341 0h-196l-832 1239v-1239h-166v1495h195l836 -1241v1241h163v-1495zM743 0z" />
<glyph unicode="&#x148;" horiz-adv-x="1114" d="M264 1638h131l160 -311l162 311h133l-186 -387h-213zM662 1124q179 0 262.5 -116.5t83.5 -350.5v-657h-168v551q0 70 -1.5 114.5t-6 95t-13.5 80.5t-24.5 60t-38.5 45.5t-55.5 25t-75.5 9.5q-66 0 -127 -22t-103.5 -57t-72 -74.5t-39.5 -77.5v-750h-168v831l-4 267h145 l14 -162q64 87 170.5 137.5t221.5 50.5zM555 0z" />
<glyph unicode="&#x14a;" horiz-adv-x="1419" d="M840 -328q-47 0 -201 15l-23 147q135 -8 179 -8q71 0 118.5 6t81.5 23.5t53 39.5t29.5 65.5t13.5 88.5t3 121v834q0 199 -63.5 276.5t-225.5 77.5q-154 0 -280.5 -76t-202.5 -192v-1090h-177l-2 1495h160l19 -211q124 136 254 186t280 50q202 0 308 -130.5t106 -379.5 v-844q0 -98 -10 -170t-38 -136t-75 -103.5t-124 -62t-183 -22.5z" />
<glyph unicode="&#x14b;" horiz-adv-x="1116" d="M621 -283l-13 142h43q46 0 74.5 3t51.5 13.5t35 25.5t20 45t10 65.5t2 92.5v447q0 70 -1.5 114.5t-6 95t-13.5 80.5t-24.5 60t-38.5 45.5t-55.5 25t-75.5 9.5q-66 0 -127 -22t-103.5 -57t-72 -74.5t-39.5 -77.5v-750h-168v831l-4 267h143l16 -162q64 87 170.5 137.5 t221.5 50.5q179 0 262.5 -116.5t83.5 -350.5v-499q0 -73 -2.5 -121t-9.5 -99t-21 -82t-37.5 -60.5t-58 -45t-82 -24.5t-111.5 -9h-69z" />
<glyph unicode="&#x14c;" horiz-adv-x="1660" d="M1081 1666h-501v143h501v-143zM829 1372q-264 0 -402 -168.5t-138 -458.5q0 -132 32 -242t96 -194.5t169 -132t243 -47.5t243 47.5t168.5 132t95.5 194.5t32 242q0 288 -138 457.5t-401 169.5zM829 -23q-141 0 -259.5 38t-205 106.5t-147 164t-90 211.5t-29.5 248 q0 233 85.5 408.5t251.5 274t394 98.5t394 -98.5t251 -274t85 -408.5q0 -165 -47.5 -305t-137.5 -243.5t-229.5 -161.5t-315.5 -58zM829 1489z" />
<glyph unicode="&#x14d;" horiz-adv-x="1181" d="M842 1275h-501v143h501v-143zM928 547q0 91 -18 167t-55.5 138.5t-104 97.5t-156.5 35q-85 0 -152.5 -37t-108.5 -99.5t-62 -140t-21 -163.5q0 -85 21 -161t62.5 -137.5t109.5 -97.5t155 -36q86 0 151.5 36t103.5 98t56.5 137.5t18.5 162.5zM1102 549q0 -115 -33.5 -218 t-96 -182.5t-160.5 -126.5t-218 -47q-121 0 -220 45t-163 123t-98.5 181.5t-34.5 222.5q0 118 35 222.5t100 183.5t164.5 125t220.5 46q123 0 220 -45.5t158.5 -124.5t93.5 -182t32 -223zM590 1098z" />
<glyph unicode="&#x14e;" horiz-adv-x="1660" d="M829 1690q-100 0 -174.5 68t-74.5 190h116q0 -69 37 -105.5t96 -36.5t97.5 36.5t38.5 105.5h118q0 -122 -76 -190t-178 -68zM829 1372q-264 0 -402 -168.5t-138 -458.5q0 -132 32 -242t96 -194.5t169 -132t243 -47.5t243 47.5t168.5 132t95.5 194.5t32 242 q0 288 -138 457.5t-401 169.5zM829 -23q-141 0 -259.5 38t-205 106.5t-147 164t-90 211.5t-29.5 248q0 233 85.5 408.5t251.5 274t394 98.5t394 -98.5t251 -274t85 -408.5q0 -165 -47.5 -305t-137.5 -243.5t-229.5 -161.5t-315.5 -58zM829 1489z" />
<glyph unicode="&#x14f;" horiz-adv-x="1181" d="M590 1298q-100 0 -175 68t-75 190h117q0 -69 37 -105t96 -36t97 36t38 105h119q0 -122 -76 -190t-178 -68zM928 547q0 91 -18 167t-55.5 138.5t-104 97.5t-156.5 35q-85 0 -152.5 -37t-108.5 -99.5t-62 -140t-21 -163.5q0 -85 21 -161t62.5 -137.5t109.5 -97.5t155 -36 q86 0 151.5 36t103.5 98t56.5 137.5t18.5 162.5zM1102 549q0 -115 -33.5 -218t-96 -182.5t-160.5 -126.5t-218 -47q-121 0 -220 45t-163 123t-98.5 181.5t-34.5 222.5q0 118 35 222.5t100 183.5t164.5 125t220.5 46q123 0 220 -45.5t158.5 -124.5t93.5 -182t32 -223z M590 1098z" />
<glyph unicode="&#x150;" horiz-adv-x="1660" d="M1122 1985l-250 -334h-102l203 334h149zM889 1985l-252 -334h-100l198 334h154zM829 1372q-264 0 -402 -168.5t-138 -458.5q0 -132 32 -242t96 -194.5t169 -132t243 -47.5t243 47.5t168.5 132t95.5 194.5t32 242q0 288 -138 457.5t-401 169.5zM829 -23q-141 0 -259.5 38 t-205 106.5t-147 164t-90 211.5t-29.5 248q0 233 85.5 408.5t251.5 274t394 98.5t394 -98.5t251 -274t85 -408.5q0 -165 -47.5 -305t-137.5 -243.5t-229.5 -161.5t-315.5 -58zM829 1489z" />
<glyph unicode="&#x151;" horiz-adv-x="1181" d="M885 1593l-250 -333h-103l203 333h150zM651 1593l-252 -333h-100l199 333h153zM928 547q0 91 -18 167t-55.5 138.5t-104 97.5t-156.5 35q-85 0 -152.5 -37t-108.5 -99.5t-62 -140t-21 -163.5q0 -85 21 -161t62.5 -137.5t109.5 -97.5t155 -36q86 0 151.5 36t103.5 98 t56.5 137.5t18.5 162.5zM1102 549q0 -115 -33.5 -218t-96 -182.5t-160.5 -126.5t-218 -47q-121 0 -220 45t-163 123t-98.5 181.5t-34.5 222.5q0 118 35 222.5t100 183.5t164.5 125t220.5 46q123 0 220 -45.5t158.5 -124.5t93.5 -182t32 -223zM590 1098z" />
<glyph unicode="&#x152;" horiz-adv-x="1978" d="M1149 1260q-139 112 -334 112q-238 0 -378 -166.5t-146 -433.5q0 -109 17.5 -202.5t57.5 -175.5t100.5 -139.5t151.5 -91t205 -34.5q86 0 182.5 31.5t143.5 60.5v1039zM801 1524q107 0 198 -30t150 -81v82h725l-16 -154h-533v-495h496v-154h-496v-536h573l-16 -156h-733 v82q-34 -35 -137.5 -70t-188.5 -35q-175 0 -313 57.5t-227.5 162.5t-136 250.5t-46.5 322.5q4 161 58 301t145.5 239.5t220.5 156.5t277 57zM989 1489z" />
<glyph unicode="&#x153;" horiz-adv-x="1914" d="M1425 -25q243 0 394 131l-54 123q-74 -50 -152 -80t-183 -30q-148 0 -242 108t-94 291h739q0 9 1 38.5t1 37.5q0 246 -110.5 388t-311.5 142q-128 -3 -236.5 -66t-170.5 -169q-61 110 -165.5 172.5t-250.5 62.5q-121 0 -219 -46t-160 -125.5t-95.5 -183t-33.5 -222.5 t33 -222.5t95 -181.5t159.5 -123t218.5 -45q141 0 244.5 62.5t166.5 173.5q64 -114 172.5 -175t253.5 -61zM1100 635q13 161 96.5 256.5t208.5 95.5t195.5 -90t70.5 -262h-571zM590 113q-87 0 -153 36t-104.5 98t-57.5 137t-19 161q0 69 11.5 131.5t37.5 119.5t64 98.5 t94 66t125 24.5q90 0 156.5 -35t104 -97.5t55.5 -138.5t18 -167q0 -87 -19 -162.5t-57.5 -137.5t-104 -98t-151.5 -36zM958 1098z" />
<glyph unicode="&#x154;" horiz-adv-x="1280" d="M324 1341v-499l356 -4q133 -1 210.5 29t107.5 86t30 149q0 121 -70.5 180t-236.5 59h-397zM1272 0h-201l-203 465q-80 179 -106 223q-58 -4 -172 -4l-266 8v-692h-177v1495h474q96 0 167 -5.5t141 -20t117 -42t84 -70t54.5 -105.5t17.5 -146q0 -143 -70.5 -243.5 t-211.5 -137.5q-1 0 18.5 -33.5t48 -85t43.5 -84.5zM860 2030l-325 -390h-115l186 390h254zM641 1489z" />
<glyph unicode="&#x155;" horiz-adv-x="661" d="M123 0h168v643q0 130 80 215.5t227 85.5h41l-12 154h-31q-216 0 -322 -191l-12 191h-141q0 -42 1 -125.5t1 -126.5v-846zM551 1638l-326 -389h-114l186 389h254zM332 1098z" />
<glyph unicode="&#x156;" horiz-adv-x="1280" d="M324 1341v-499l356 -4q133 -1 210.5 29t107.5 86t30 149q0 121 -70.5 180t-236.5 59h-397zM1272 0h-201l-203 465q-80 179 -106 223q-58 -4 -172 -4l-266 8v-692h-177v1495h474q96 0 167 -5.5t141 -20t117 -42t84 -70t54.5 -105.5t17.5 -146q0 -143 -70.5 -243.5 t-211.5 -137.5q-1 0 18.5 -33.5t48 -85t43.5 -84.5zM576 -601l95 498h165l-144 -498h-116z" />
<glyph unicode="&#x157;" horiz-adv-x="661" d="M123 0h168v643q0 130 80 215.5t227 85.5h41l-12 154h-31q-216 0 -322 -191l-12 191h-141q0 -42 1 -125.5t1 -126.5v-846zM257 -601l95 498h165l-144 -498h-116z" />
<glyph unicode="&#x158;" horiz-adv-x="1280" d="M348 2030h131l160 -312l162 312h133l-186 -388h-213zM324 1341v-499l356 -4q133 -1 210.5 29t107.5 86t30 149q0 121 -70.5 180t-236.5 59h-397zM1272 0h-201l-203 465q-80 179 -106 223q-58 -4 -172 -4l-266 8v-692h-177v1495h474q96 0 167 -5.5t141 -20t117 -42t84 -70 t54.5 -105.5t17.5 -146q0 -143 -70.5 -243.5t-211.5 -137.5q-1 0 18.5 -33.5t48 -85t43.5 -84.5zM641 0z" />
<glyph unicode="&#x159;" horiz-adv-x="661" d="M39 1638h131l160 -311l162 311h133l-187 -387h-213zM123 0h168v643q0 130 80 215.5t227 85.5h41l-12 154h-31q-216 0 -322 -191l-12 191h-141q0 -42 1 -125.5t1 -126.5v-846zM330 0z" />
<glyph unicode="&#x15a;" horiz-adv-x="1239" d="M842 2030l-326 -390h-115l187 390h254zM145 244l-51 -144q81 -49 220.5 -86t316.5 -37q238 0 376 114.5t138 340.5q0 90 -25.5 158.5t-75 116.5t-114.5 79t-152 52l-280 67q-111 27 -166.5 78.5t-55.5 136.5q0 252 363 252q112 0 221 -28.5t178 -65.5l52 139 q-79 49 -198 79t-251 30q-256 0 -400.5 -102.5t-144.5 -313.5q0 -277 336 -360l295 -74q136 -34 188 -93.5t52 -156.5q0 -297 -326 -297q-264 0 -496 115zM614 0z" />
<glyph unicode="&#x15b;" horiz-adv-x="907" d="M674 1638l-326 -389h-115l187 389h254zM854 295v4q0 133 -69 210.5t-207 113.5l-152 41q-85 22 -121.5 59.5t-36.5 91.5q0 83 59 129.5t152 46.5q142 0 281 -59l39 121q-139 71 -332 71q-89 -1 -160.5 -27.5t-115.5 -70.5t-67.5 -98t-23.5 -113q2 -108 66 -184t219 -119 l145 -41q166 -47 166 -170v-10q-7 -85 -63.5 -130.5t-151.5 -45.5h-16q-98 0 -180 30t-131 62l-43 -129q55 -41 159.5 -72t221.5 -31q160 0 259 84t103 236zM467 0z" />
<glyph unicode="&#x15c;" horiz-adv-x="1239" d="M328 1642l186 388h213l186 -388h-133l-162 273l-159 -273h-131zM145 244l-51 -144q81 -49 220.5 -86t316.5 -37q238 0 376 114.5t138 340.5q0 90 -25.5 158.5t-75 116.5t-114.5 79t-152 52l-280 67q-111 27 -166.5 78.5t-55.5 136.5q0 252 363 252q112 0 221 -28.5 t178 -65.5l52 139q-79 49 -198 79t-251 30q-256 0 -400.5 -102.5t-144.5 -313.5q0 -277 336 -360l295 -74q136 -34 188 -93.5t52 -156.5q0 -297 -326 -297q-264 0 -496 115zM614 0z" />
<glyph unicode="&#x15d;" horiz-adv-x="907" d="M162 1251l186 387h213l187 -387h-134l-161 273l-160 -273h-131zM854 295v4q0 133 -69 210.5t-207 113.5l-152 41q-85 22 -121.5 59.5t-36.5 91.5q0 83 59 129.5t152 46.5q142 0 281 -59l39 121q-139 71 -332 71q-89 -1 -160.5 -27.5t-115.5 -70.5t-67.5 -98t-23.5 -113 q2 -108 66 -184t219 -119l145 -41q166 -47 166 -170v-10q-7 -85 -63.5 -130.5t-151.5 -45.5h-16q-98 0 -180 30t-131 62l-43 -129q55 -41 159.5 -72t221.5 -31q160 0 259 84t103 236zM467 0z" />
<glyph unicode="&#x15e;" horiz-adv-x="1239" d="M438 -403l8 92q98 -27 134 -27q100 0 100 78q0 80 -98 80q-1 0 -5.5 -0.5t-12 -1t-13.5 -0.5l-29 -2l27 200h86l-12 -112h6q75 0 125.5 -40.5t50.5 -119.5q0 -83 -59 -126.5t-154 -43.5q-52 0 -154 23zM145 244l-51 -144q81 -49 220.5 -86t316.5 -37q238 0 376 114.5 t138 340.5q0 90 -25.5 158.5t-75 116.5t-114.5 79t-152 52l-280 67q-111 27 -166.5 78.5t-55.5 136.5q0 252 363 252q112 0 221 -28.5t178 -65.5l52 139q-79 49 -198 79t-251 30q-256 0 -400.5 -102.5t-144.5 -313.5q0 -277 336 -360l295 -74q136 -34 188 -93.5t52 -156.5 q0 -297 -326 -297q-264 0 -496 115zM614 0z" />
<glyph unicode="&#x15f;" horiz-adv-x="907" d="M272 -403l9 92q98 -27 133 -27q100 0 100 78q0 80 -98 80q-1 0 -5.5 -0.5t-12 -1t-13.5 -0.5l-29 -2l27 200h86l-12 -112h6q75 0 125.5 -40.5t50.5 -119.5q0 -83 -59 -126.5t-154 -43.5q-52 0 -154 23zM854 295v4q0 133 -69 210.5t-207 113.5l-152 41q-85 22 -121.5 59.5 t-36.5 91.5q0 83 59 129.5t152 46.5q142 0 281 -59l39 121q-139 71 -332 71q-89 -1 -160.5 -27.5t-115.5 -70.5t-67.5 -98t-23.5 -113q2 -108 66 -184t219 -119l145 -41q166 -47 166 -170v-10q-7 -85 -63.5 -130.5t-151.5 -45.5h-16q-98 0 -180 30t-131 62l-43 -129 q55 -41 159.5 -72t221.5 -31q160 0 259 84t103 236zM467 0z" />
<glyph unicode="&#x160;" horiz-adv-x="1239" d="M328 2030h131l159 -312l162 312h133l-186 -388h-213zM145 244l-51 -144q81 -49 220.5 -86t316.5 -37q238 0 376 114.5t138 340.5q0 90 -25.5 158.5t-75 116.5t-114.5 79t-152 52l-280 67q-111 27 -166.5 78.5t-55.5 136.5q0 252 363 252q112 0 221 -28.5t178 -65.5 l52 139q-79 49 -198 79t-251 30q-256 0 -400.5 -102.5t-144.5 -313.5q0 -277 336 -360l295 -74q136 -34 188 -93.5t52 -156.5q0 -297 -326 -297q-264 0 -496 115zM614 0z" />
<glyph unicode="&#x161;" horiz-adv-x="907" d="M162 1638h131l160 -311l161 311h134l-187 -387h-213zM854 295v4q0 133 -69 210.5t-207 113.5l-152 41q-85 22 -121.5 59.5t-36.5 91.5q0 83 59 129.5t152 46.5q142 0 281 -59l39 121q-139 71 -332 71q-89 -1 -160.5 -27.5t-115.5 -70.5t-67.5 -98t-23.5 -113 q2 -108 66 -184t219 -119l145 -41q166 -47 166 -170v-10q-7 -85 -63.5 -130.5t-151.5 -45.5h-16q-98 0 -180 30t-131 62l-43 -129q55 -41 159.5 -72t221.5 -31q160 0 259 84t103 236zM467 0z" />
<glyph unicode="&#x164;" horiz-adv-x="1024" d="M-2 1341v154h1071v-154h-448v-1341h-177v1341h-446zM219 2030h131l160 -312l162 312h133l-187 -388h-212zM512 1489z" />
<glyph unicode="&#x165;" horiz-adv-x="669" d="M358 981v-614q0 -155 29.5 -201.5t128.5 -46.5q7 0 137 10l15 -135q-175 -14 -191 -14q-57 0 -99.5 9t-73.5 24t-51.5 45t-33 62t-19 86.5t-8.5 106t-2 131.5v537h-167l14 117h153l43 354l125 10v-364h291v-117h-291zM1053 1464l-125 -522h-107l21 522h211z" />
<glyph unicode="&#x166;" horiz-adv-x="1048" d="M256 530v123h508v-123h-508zM-2 1341v154h1071v-154h-448v-1341h-177v1341h-446zM532 745z" />
<glyph unicode="&#x167;" horiz-adv-x="675" d="M39 639v125h530v-125h-530zM358 981v-614q0 -155 29.5 -201.5t128.5 -46.5q7 0 137 10l15 -135q-175 -14 -191 -14q-57 0 -99.5 9t-73.5 24t-51.5 45t-33 62t-19 86.5t-8.5 106t-2 131.5v537h-167l14 117h153l43 354l125 10v-364h291v-117h-291zM362 549z" />
<glyph unicode="&#x168;" horiz-adv-x="1384" d="M487 1681h-106q0 110 45 165t127 55q55 0 119.5 -23.5t112.5 -47.5t61 -24h2q19 1 30 17.5t13.5 33t3.5 44.5h109q0 -220 -148 -220q-46 0 -160 49.5t-151 49.5h-2q-24 0 -39 -28t-17 -71zM688 -23q-128 0 -225 26t-160 72.5t-103 116t-56.5 149.5t-16.5 181v973h176 v-967q0 -218 90.5 -310.5t294.5 -92.5q203 0 294 93t91 310v967h176v-973q0 -101 -16.5 -181t-56 -149.5t-102.5 -116t-160.5 -72.5t-225.5 -26zM1247 10z" />
<glyph unicode="&#x169;" horiz-adv-x="1097" d="M344 1290h-106q0 110 45 164.5t127 54.5q55 0 119.5 -23.5t112 -47t60.5 -23.5h3q19 1 30 17t13.5 32.5t3.5 44.5h108q0 -219 -147 -219q-47 0 -161 49.5t-151 49.5h-2q-24 0 -38.5 -28t-16.5 -71zM109 367v731h167v-733q0 -72 20 -122.5t58.5 -78t86 -39.5t110.5 -12 q62 0 108.5 12.5t84.5 40t57.5 78t19.5 121.5v733h168v-731q0 -105 -35.5 -182.5t-97.5 -122.5t-138.5 -66t-166.5 -21q-72 0 -135 13t-120 42.5t-98 74t-65 111.5t-24 151zM989 10z" />
<glyph unicode="&#x16a;" horiz-adv-x="1384" d="M944 1666h-501v143h501v-143zM688 -23q-128 0 -225 26t-160 72.5t-103 116t-56.5 149.5t-16.5 181v973h176v-967q0 -218 90.5 -310.5t294.5 -92.5q203 0 294 93t91 310v967h176v-973q0 -101 -16.5 -181t-56 -149.5t-102.5 -116t-160.5 -72.5t-225.5 -26zM1247 10z" />
<glyph unicode="&#x16b;" horiz-adv-x="1097" d="M801 1275h-501v143h501v-143zM109 367v731h167v-733q0 -72 20 -122.5t58.5 -78t86 -39.5t110.5 -12q62 0 108.5 12.5t84.5 40t57.5 78t19.5 121.5v733h168v-731q0 -105 -35.5 -182.5t-97.5 -122.5t-138.5 -66t-166.5 -21q-72 0 -135 13t-120 42.5t-98 74t-65 111.5 t-24 151zM989 10z" />
<glyph unicode="&#x16c;" horiz-adv-x="1384" d="M690 1690q-100 0 -175 68t-75 190h117q0 -69 37 -105.5t96 -36.5t97 36.5t38 105.5h119q0 -122 -76 -190t-178 -68zM688 -23q-128 0 -225 26t-160 72.5t-103 116t-56.5 149.5t-16.5 181v973h176v-967q0 -218 90.5 -310.5t294.5 -92.5q203 0 294 93t91 310v967h176v-973 q0 -101 -16.5 -181t-56 -149.5t-102.5 -116t-160.5 -72.5t-225.5 -26zM1247 10z" />
<glyph unicode="&#x16d;" horiz-adv-x="1097" d="M547 1298q-100 0 -175 68t-75 190h117q0 -69 37 -105t96 -36t97 36t38 105h119q0 -122 -76 -190t-178 -68zM109 367v731h167v-733q0 -72 20 -122.5t58.5 -78t86 -39.5t110.5 -12q62 0 108.5 12.5t84.5 40t57.5 78t19.5 121.5v733h168v-731q0 -105 -35.5 -182.5 t-97.5 -122.5t-138.5 -66t-166.5 -21q-72 0 -135 13t-120 42.5t-98 74t-65 111.5t-24 151zM989 10z" />
<glyph unicode="&#x16e;" horiz-adv-x="1384" d="M692 2030q-78 0 -136 -55.5t-58 -141.5q0 -83 57.5 -133.5t138.5 -50.5q78 0 135.5 50.5t57.5 133.5t-58 140t-137 57zM692 1720q-45 0 -71.5 31t-26.5 82q0 46 30 80.5t68 34.5q41 0 68.5 -34t27.5 -81q0 -46 -29 -79.5t-67 -33.5zM688 -23q-128 0 -225 26t-160 72.5 t-103 116t-56.5 149.5t-16.5 181v973h176v-967q0 -218 90.5 -310.5t294.5 -92.5q203 0 294 93t91 310v967h176v-973q0 -101 -16.5 -181t-56 -149.5t-102.5 -116t-160.5 -72.5t-225.5 -26zM1247 10z" />
<glyph unicode="&#x16f;" horiz-adv-x="1097" d="M551 1638q-78 0 -136.5 -55t-58.5 -141q0 -83 58 -134t139 -51q77 0 134.5 51t57.5 134t-57.5 139.5t-136.5 56.5zM551 1329q-45 0 -71.5 31t-26.5 82q0 45 30 79.5t68 34.5q41 0 68.5 -33.5t27.5 -80.5q0 -46 -29 -79.5t-67 -33.5zM109 367v731h167v-733 q0 -72 20 -122.5t58.5 -78t86 -39.5t110.5 -12q62 0 108.5 12.5t84.5 40t57.5 78t19.5 121.5v733h168v-731q0 -105 -35.5 -182.5t-97.5 -122.5t-138.5 -66t-166.5 -21q-72 0 -135 13t-120 42.5t-98 74t-65 111.5t-24 151zM989 10z" />
<glyph unicode="&#x170;" horiz-adv-x="1384" d="M985 1985l-250 -334h-102l203 334h149zM752 1985l-252 -334h-101l199 334h154zM688 -23q-128 0 -225 26t-160 72.5t-103 116t-56.5 149.5t-16.5 181v973h176v-967q0 -218 90.5 -310.5t294.5 -92.5q203 0 294 93t91 310v967h176v-973q0 -101 -16.5 -181t-56 -149.5 t-102.5 -116t-160.5 -72.5t-225.5 -26zM1247 10z" />
<glyph unicode="&#x171;" horiz-adv-x="1097" d="M842 1593l-250 -333h-103l203 333h150zM608 1593l-252 -333h-100l199 333h153zM109 367v731h167v-733q0 -72 20 -122.5t58.5 -78t86 -39.5t110.5 -12q62 0 108.5 12.5t84.5 40t57.5 78t19.5 121.5v733h168v-731q0 -105 -35.5 -182.5t-97.5 -122.5t-138.5 -66t-166.5 -21 q-72 0 -135 13t-120 42.5t-98 74t-65 111.5t-24 151zM989 10z" />
<glyph unicode="&#x172;" horiz-adv-x="1384" d="M1110 -303q53 0 137 33v-117q-80 -33 -157 -33q-85 0 -139 46t-54 130q0 139 190 248h115q-88 -66 -134 -118t-46 -99q0 -38 27.5 -64t60.5 -26zM688 -23q-128 0 -225 26t-160 72.5t-103 116t-56.5 149.5t-16.5 181v973h176v-967q0 -218 90.5 -310.5t294.5 -92.5 q203 0 294 93t91 310v967h176v-973q0 -101 -16.5 -181t-56 -149.5t-102.5 -116t-160.5 -72.5t-225.5 -26zM1247 10z" />
<glyph unicode="&#x173;" horiz-adv-x="1097" d="M852 -303q53 0 137 33v-117q-80 -33 -158 -33q-85 0 -138.5 46t-53.5 130q0 139 190 248h115q-88 -66 -134 -118t-46 -99q0 -38 27.5 -64t60.5 -26zM109 367v731h167v-733q0 -72 20 -122.5t58.5 -78t86 -39.5t110.5 -12q62 0 108.5 12.5t84.5 40t57.5 78t19.5 121.5v733 h168v-731q0 -105 -35.5 -182.5t-97.5 -122.5t-138.5 -66t-166.5 -21q-72 0 -135 13t-120 42.5t-98 74t-65 111.5t-24 151zM989 10z" />
<glyph unicode="&#x174;" horiz-adv-x="2129" d="M772 1642l186 388h213l187 -388h-133l-162 273l-160 -273h-131zM1540 195l436 1300h183l-514 -1495h-209l-353 1225l-399 -1225h-209l-502 1495h183l430 -1298l391 1245h209zM1067 1489z" />
<glyph unicode="&#x175;" horiz-adv-x="1597" d="M508 1251l186 387h213l187 -387h-133l-162 273l-160 -273h-131zM14 1098h174l244 -875l291 875h197l278 -871l236 871h170l-328 -1098h-166l-293 928l-305 -928h-170zM811 1098z" />
<glyph unicode="&#x176;" horiz-adv-x="1241" d="M328 1642l186 388h213l186 -388h-133l-162 273l-159 -273h-131zM1243 1495l-557 -881v-614h-176v614l-510 881h186l424 -717l441 717h192zM621 1489z" />
<glyph unicode="&#x177;" horiz-adv-x="989" d="M203 1251l186 387h213l186 -387h-133l-161 273l-160 -273h-131zM180 1098h-176l426 -1075q-31 -92 -51.5 -145.5t-47 -100.5t-48.5 -68t-59.5 -36.5t-76 -19t-102.5 -3.5h-29l21 -152h51q76 0 138.5 14.5t111 45t85.5 67.5t68.5 92.5t54.5 108.5t48 127l399 1145h-178 q-203 -630 -289 -891zM510 1098z" />
<glyph unicode="&#x178;" horiz-adv-x="1241" d="M504 1645h-154v213h154v-213zM895 1645h-156v213h156v-213zM1243 1495l-557 -881v-614h-176v614l-510 881h186l424 -717l441 717h192zM621 1489z" />
<glyph unicode="&#x179;" horiz-adv-x="1198" d="M819 2030l-325 -390h-115l186 390h254zM1157 1495v-123l-842 -1216h834l-12 -156h-1047v139l832 1202h-797v154h1032zM600 1489z" />
<glyph unicode="&#x17a;" horiz-adv-x="884" d="M664 1638l-326 -389h-115l187 389h254zM86 139v-139h737v135h-551l531 830v133h-723v-133h530zM436 1098z" />
<glyph unicode="&#x17b;" horiz-adv-x="1198" d="M625 1890q62 0 97.5 -39t35.5 -92q0 -54 -35.5 -93.5t-97.5 -39.5t-97.5 39.5t-35.5 93.5q0 53 35.5 92t97.5 39zM1157 1495v-123l-842 -1216h834l-12 -156h-1047v139l832 1202h-797v154h1032zM600 1489z" />
<glyph unicode="&#x17c;" horiz-adv-x="884" d="M449 1489q62 0 97.5 -39t35.5 -92q0 -54 -35.5 -93.5t-97.5 -39.5t-98 40t-36 93t35.5 92t98.5 39zM86 139v-139h737v135h-551l531 830v133h-723v-133h530zM436 1098z" />
<glyph unicode="&#x17d;" horiz-adv-x="1198" d="M307 2030h131l160 -312l162 312h133l-186 -388h-213zM1157 1495v-123l-842 -1216h834l-12 -156h-1047v139l832 1202h-797v154h1032zM600 1489z" />
<glyph unicode="&#x17e;" horiz-adv-x="884" d="M150 1638h131l159 -311l162 311h133l-186 -387h-213zM86 139v-139h737v135h-551l531 830v133h-723v-133h530zM436 1098z" />
<glyph unicode="&#x18f;" horiz-adv-x="1431" d="M662 -23q-130 0 -236 40.5t-175 105.5t-117 153.5t-70.5 178.5t-26.5 186l6 135h1090q-2 121 -33.5 224.5t-94 188.5t-168.5 134t-245 49q-189 0 -375 -123l-65 135q100 74 203 108t251 34q171 0 309 -60t226 -165t135 -244t47 -299q0 -223 -82.5 -400.5t-234 -279 t-344.5 -101.5zM1124 631h-907q5 -72 17.5 -135t44 -133t78.5 -119.5t126.5 -82t182.5 -32.5q191 0 311.5 141t146.5 361z" />
<glyph unicode="&#x192;" horiz-adv-x="976" d="M412 864h-158l10 152h174l23 162q11 79 31.5 140t56.5 115t95 83.5t138 29.5q57 0 129 -20l-8 -158q-58 25 -96 25q-74 0 -107.5 -40.5t-46.5 -125.5l-39 -211h187l-10 -152h-197l-133 -735q-16 -87 -32 -150t-43.5 -131t-61.5 -109.5t-86.5 -69t-118.5 -27.5 q-23 0 -90 18l10 147q49 -18 70 -18q59 0 92 57t55 160q37 161 90.5 478.5t65.5 379.5z" />
<glyph unicode="&#x1c4;" horiz-adv-x="2721" d="M1829 2030h131l160 -312l161 312h134l-187 -388h-213zM2679 1495v-123l-842 -1216h834l-13 -156h-1046v139l831 1202h-796v154h1032zM324 1341v-1185h315q280 0 432 145.5t152 431.5q0 139 -32 244t-89.5 173.5t-144 111.5t-187.5 61t-229 18h-217zM147 0v1495h371 q161 0 292 -23t245 -77.5t191 -140.5t121 -216.5t44 -300.5q0 -183 -57 -324.5t-162 -231.5t-249 -135.5t-322 -45.5h-474zM762 745z" />
<glyph unicode="&#x1c5;" horiz-adv-x="2381" d="M1671 1638h131l160 -311l162 311h133l-186 -387h-213zM1608 139v-139h737v135h-551l530 830v133h-722v-133h530zM324 1341v-1185h315q280 0 432 145.5t152 431.5q0 139 -32 244t-89.5 173.5t-144 111.5t-187.5 61t-229 18h-217zM147 0v1495h371q161 0 292 -23t245 -77.5 t191 -140.5t121 -216.5t44 -300.5q0 -183 -57 -324.5t-162 -231.5t-249 -135.5t-322 -45.5h-474zM762 745z" />
<glyph unicode="&#x1c7;" horiz-adv-x="1509" d="M1186 180v1315h178v-1253q0 -73 -3 -122.5t-12 -101.5t-26.5 -85t-45.5 -63t-69.5 -47t-98.5 -26.5t-132 -9.5h-35l-22 141h75q38 0 67.5 6.5t50 17t34 29.5t21.5 37.5t12 48t5 53t1 60.5zM147 1495h179v-1339h655l-10 -156h-824v1495zM479 0z" />
<glyph unicode="&#x1c8;" horiz-adv-x="1404" d="M1290 1495v-197h-168v197h168zM1290 1098v-1237q0 -105 -13.5 -170.5t-50.5 -111t-101 -63.5t-167 -18h-53l-22 152h53q34 0 60 2.5t45.5 10.5t33 15.5t22.5 24.5t14 30.5t7.5 40.5t3 47t0.5 58v1219h168zM147 1495h179v-1339h655l-10 -156h-824v1495zM479 0z" />
<glyph unicode="&#x1ca;" horiz-adv-x="2037" d="M1714 180v1315h178v-1253q0 -73 -3 -122.5t-12 -101.5t-26.5 -85t-45.5 -63t-69.5 -47t-98.5 -26.5t-132 -9.5h-35l-22 141h76q53 0 89.5 13t56 32t30 56t12.5 67.5t2 83.5zM1341 0h-196l-832 1239v-1239h-166v1495h195l836 -1241v1241h163v-1495zM743 0z" />
<glyph unicode="&#x1cb;" horiz-adv-x="1931" d="M1819 1495v-197h-168v197h168zM1819 1098v-1237q0 -105 -13.5 -170.5t-50.5 -111t-101 -63.5t-167 -18h-53l-23 152h53q30 0 54 2.5t43 6.5t32.5 13.5t23.5 18t16 25t10 30t5.5 38t2 43.5t0.5 52v1219h168zM1341 0h-196l-832 1239v-1239h-166v1495h195l836 -1241v1241 h163v-1495zM743 0z" />
<glyph unicode="&#x1f4;" horiz-adv-x="1431" d="M936 2030l-326 -390h-114l186 390h254zM811 -23q145 0 262 33t248 113v641h-512l-12 -150h370v-395q-55 -34 -152.5 -62t-185.5 -28q-111 0 -201.5 32.5t-152 88.5t-104 134.5t-61.5 168.5t-19 192q0 101 19 192t61.5 171t104 138.5t152 92t201.5 33.5q103 0 209 -38 t172 -91l66 137q-182 146 -461 146q-175 0 -313.5 -62.5t-225 -171t-131.5 -248t-45 -299.5q0 -156 45.5 -293.5t132 -244t224 -168.5t309.5 -62zM717 0z" />
<glyph unicode="&#x1f5;" horiz-adv-x="1165" d="M803 1638l-326 -389h-115l187 389h254zM324 -502l-23 152h205q73 0 129.5 10t97 27.5t68.5 47t45.5 62t27 81t12.5 95t3 111.5v96q-60 -87 -139 -133.5t-199 -46.5q-94 0 -173 32.5t-133 86.5t-92 125t-55.5 147.5t-17.5 153.5q0 119 29 222t86.5 183.5t152 127 t215.5 46.5q203 0 332 -174v148h162v-1018q0 -70 -3.5 -122.5t-17 -116.5t-36.5 -110.5t-64.5 -92.5t-99 -75t-142.5 -47t-192 -18h-178zM575 143q85 0 149 30t100 83t53.5 118t17.5 142v82q0 81 -18 148.5t-55 121t-99 83.5t-145 30q-68 0 -124 -26t-93 -69t-62 -99 t-36 -114.5t-11 -117.5q0 -73 19.5 -144t57 -132t101.5 -98.5t145 -37.5zM584 1098z" />
<glyph unicode="&#x1fa;" horiz-adv-x="1300" d="M1049 2519l-326 -389h-115l187 389h254zM420 610h479l-227 713zM1122 0l-164 473h-593l-179 -473h-180l557 1495h213l527 -1495h-181zM668 2030q-78 0 -136.5 -55.5t-58.5 -141.5q0 -83 58 -133.5t139 -50.5q78 0 135 50.5t57 133.5t-57.5 140t-136.5 57zM668 1720 q-45 0 -72 31t-27 82q0 45 30 80t69 35q41 0 68.5 -34t27.5 -81q0 -46 -29 -79.5t-67 -33.5zM668 1489z" />
<glyph unicode="&#x1fb;" horiz-adv-x="1026" d="M879 2128l-326 -389h-115l187 389h254zM436 106q81 0 175.5 45.5t146.5 116.5v271q-99 -15 -101 -15q-237 -31 -320 -80t-83 -163q0 -88 49.5 -131.5t132.5 -43.5zM762 121q-129 -146 -342 -146q-144 0 -239 76.5t-95 222.5q0 191 171 276q101 50 325 83q20 4 61 9l1 1h1 h2l111 12v125q0 102 -52.5 152.5t-164.5 50.5q-89 0 -181 -20.5t-161 -53.5l-47 131q67 36 170.5 60t214.5 24q86 0 153 -15.5t121.5 -50.5t83.5 -98.5t29 -152.5v-807h-138zM528 1638q-78 0 -136 -55t-58 -141q0 -83 57.5 -134t138.5 -51q77 0 135 51t58 134t-58 139.5 t-137 56.5zM528 1329q-45 0 -71.5 31t-26.5 82q0 45 30 79.5t68 34.5q41 0 69 -34t28 -80q0 -45 -29.5 -79t-67.5 -34zM528 1098z" />
<glyph unicode="&#x1fc;" horiz-adv-x="2091" d="M1266 2030l-326 -390h-115l187 390h254zM954 590h-442l387 772zM209 0l217 426h551l31 -426h804l15 158h-662l-41 567h590v158h-610l-33 454h617l12 158h-899l-801 -1495h209zM956 1489z" />
<glyph unicode="&#x1fd;" horiz-adv-x="1673" d="M1057 1638l-326 -389h-115l187 389h254zM80 301q0 55 16.5 99.5t43 75t71 53.5t88 37t108 23.5t117 14t127.5 8.5q10 1 32 2t32 2v164q0 102 -44 149.5t-147 47.5q-97 0 -192.5 -23.5t-163.5 -58.5l-37 137q65 37 174 64.5t215 27.5q124 0 209.5 -49t108.5 -143 q54 95 147.5 143.5t206.5 48.5q98 0 172.5 -36.5t117.5 -99.5t64 -139.5t21 -164.5q0 -52 -13 -80.5t-55 -46.5t-121 -22l-495 -25q13 -187 86 -289t225 -102q88 0 174.5 33t149.5 77l51 -120q-157 -134 -385 -134q-203 0 -328 138q-97 -59 -220 -98.5t-233 -39.5 q-68 0 -124.5 17.5t-102 54.5t-71 101.5t-25.5 152.5zM416 113q32 0 67 5t81.5 18.5t70.5 21t82 27.5t69 24q-66 120 -75 291q-11 -1 -32.5 -2t-31.5 -2q-159 -12 -247 -38.5t-120 -65t-32 -101.5q0 -178 168 -178zM1190 983q-143 0 -218 -101.5t-83 -267.5l516 29v10 q-2 171 -53.5 250.5t-161.5 79.5zM838 1098z" />
<glyph unicode="&#x1fe;" horiz-adv-x="1716" d="M1079 2030l-325 -390h-115l186 390h254zM688 172q70 -20 164 -20q133 0 237.5 48.5t169.5 134.5t98.5 200t33.5 249q0 176 -60 317.5t-176 221.5zM1178 1745l131 -45l-82 -203q172 -95 263 -279.5t91 -439.5q0 -176 -47 -322.5t-137 -254t-229.5 -167t-315.5 -59.5 q-132 0 -234 29l-73 -184l-125 43l76 190q-183 92 -279 282t-96 443q0 373 193.5 590t537.5 217q132 0 248 -35zM852 1409q-132 0 -236 -48.5t-170 -134t-100.5 -198t-34.5 -244.5q0 -189 64.5 -335t189.5 -222l467 1155q-80 27 -180 27zM858 1489z" />
<glyph unicode="&#x1ff;" horiz-adv-x="1198" d="M819 1638l-325 -389h-115l186 389h254zM928 547q0 91 -18 167t-55.5 138.5t-104 97.5t-156.5 35q-85 0 -152.5 -37t-108.5 -99.5t-62 -140t-21 -163.5q0 -85 21 -161t62.5 -137.5t109.5 -97.5t155 -36q86 0 151.5 36t103.5 98t56.5 137.5t18.5 162.5zM1102 549 q0 -115 -33.5 -218t-96 -182.5t-160.5 -126.5t-218 -47q-121 0 -220 45t-163 123t-98.5 181.5t-34.5 222.5q0 118 35 222.5t100 183.5t164.5 125t220.5 46q123 0 220 -45.5t158.5 -124.5t93.5 -182t32 -223zM895 1366l76 -31l-684 -1609l-72 36zM596 1098z" />
<glyph unicode="&#x200;" horiz-adv-x="1300" d="M750 1628l-246 334h149l199 -334h-102zM481 1628l-250 334h150l203 -334h-103zM420 610h479l-227 713zM1122 0l-164 473h-593l-179 -473h-180l557 1495h213l527 -1495h-181zM1176 10z" />
<glyph unicode="&#x201;" horiz-adv-x="1026" d="M580 1227l-246 334h149l199 -334h-102zM311 1227l-250 334h150l203 -334h-103zM436 106q81 0 175.5 45.5t146.5 116.5v271q-99 -15 -101 -15q-237 -31 -320 -80t-83 -163q0 -88 49.5 -131.5t132.5 -43.5zM762 121q-129 -146 -342 -146q-144 0 -239 76.5t-95 222.5 q0 191 171 276q101 50 325 83q20 4 61 9l1 1h1h2l111 12v125q0 102 -52.5 152.5t-164.5 50.5q-89 0 -181 -20.5t-161 -53.5l-47 131q67 36 170.5 60t214.5 24q86 0 153 -15.5t121.5 -50.5t83.5 -98.5t29 -152.5v-807h-138zM932 10z" />
<glyph unicode="&#x202;" horiz-adv-x="1300" d="M664 1884q102 0 178 -68t76 -190h-119q0 69 -38 105t-97 36t-96.5 -36t-37.5 -105h-116q0 122 75 190t175 68zM420 610h479l-227 713zM1122 0l-164 473h-593l-179 -473h-180l557 1495h213l527 -1495h-181zM1176 10z" />
<glyph unicode="&#x203;" horiz-adv-x="1026" d="M496 1483q102 0 178 -68t76 -190h-119q0 69 -38 105t-97 36t-96.5 -36t-37.5 -105h-116q0 122 75 190t175 68zM436 106q81 0 175.5 45.5t146.5 116.5v271q-99 -15 -101 -15q-237 -31 -320 -80t-83 -163q0 -88 49.5 -131.5t132.5 -43.5zM762 121q-129 -146 -342 -146 q-144 0 -239 76.5t-95 222.5q0 191 171 276q101 50 325 83q20 4 61 9l1 1h1h2l111 12v125q0 102 -52.5 152.5t-164.5 50.5q-89 0 -181 -20.5t-161 -53.5l-47 131q67 36 170.5 60t214.5 24q86 0 153 -15.5t121.5 -50.5t83.5 -98.5t29 -152.5v-807h-138zM932 10z" />
<glyph unicode="&#x204;" horiz-adv-x="1138" d="M686 1628l-246 334h150l198 -334h-102zM418 1628l-250 334h149l203 -334h-102zM987 846v-154h-663v-536h735l-17 -156h-895v1495h881l-12 -154h-692v-495h663zM1026 10z" />
<glyph unicode="&#x205;" horiz-adv-x="1087" d="M629 1227l-246 334h149l199 -334h-102zM360 1227l-249 334h149l203 -334h-103zM582 -25q254 0 405 131l-51 123q-162 -110 -348 -110q-148 0 -243 108.5t-95 290.5h751q0 9 1.5 38.5t1.5 37.5q0 243 -119.5 386.5t-323.5 143.5q-215 -6 -349 -166t-134 -407 q0 -265 135 -420.5t369 -155.5zM256 635q13 161 96.5 256.5t208.5 95.5q127 0 204 -91t77 -261h-586zM977 10z" />
<glyph unicode="&#x206;" horiz-adv-x="1138" d="M600 1884q102 0 178 -68t76 -190h-119q0 69 -38 105t-97 36t-96 -36t-37 -105h-117q0 122 75 190t175 68zM987 846v-154h-663v-536h735l-17 -156h-895v1495h881l-12 -154h-692v-495h663zM1026 10z" />
<glyph unicode="&#x207;" horiz-adv-x="1087" d="M545 1483q102 0 178 -68t76 -190h-119q0 69 -38 105t-97 36t-96 -36t-37 -105h-117q0 122 75 190t175 68zM582 -25q254 0 405 131l-51 123q-162 -110 -348 -110q-148 0 -243 108.5t-95 290.5h751q0 9 1.5 38.5t1.5 37.5q0 243 -119.5 386.5t-323.5 143.5 q-215 -6 -349 -166t-134 -407q0 -265 135 -420.5t369 -155.5zM256 635q13 161 96.5 256.5t208.5 95.5q127 0 204 -91t77 -261h-586zM977 10z" />
<glyph unicode="&#x208;" d="M334 1628l-246 334h150l198 -334h-102zM66 1628l-250 334h149l203 -334h-102zM340 1495v-1495h-176v1495h176zM459 10z" />
<glyph unicode="&#x209;" horiz-adv-x="428" d="M303 1227l-246 334h150l199 -334h-103zM35 1227l-250 334h149l203 -334h-102zM303 1098v-1098h-168v1098h168zM387 10z" />
<glyph unicode="&#x20a;" d="M250 1884q102 0 178 -68t76 -190h-119q0 69 -38 105t-97 36t-96 -36t-37 -105h-117q0 122 75 190t175 68zM340 1495v-1495h-176v1495h176zM459 10z" />
<glyph unicode="&#x20b;" horiz-adv-x="428" d="M217 1483q102 0 178 -68t76 -190h-119q0 69 -38 105t-97 36t-96 -36t-37 -105h-117q0 122 75 190t175 68zM303 1098v-1098h-168v1098h168zM387 10z" />
<glyph unicode="&#x20c;" horiz-adv-x="1660" d="M913 1628l-245 334h149l199 -334h-103zM645 1628l-250 334h150l203 -334h-103zM829 1372q-264 0 -402 -168.5t-138 -458.5q0 -132 32 -242t96 -194.5t169 -132t243 -47.5t243 47.5t168.5 132t95.5 194.5t32 242q0 288 -138 457.5t-401 169.5zM829 -23q-141 0 -259.5 38 t-205 106.5t-147 164t-90 211.5t-29.5 248q0 233 85.5 408.5t251.5 274t394 98.5t394 -98.5t251 -274t85 -408.5q0 -165 -47.5 -305t-137.5 -243.5t-229.5 -161.5t-315.5 -58zM829 1489z" />
<glyph unicode="&#x20d;" horiz-adv-x="1181" d="M678 1227l-246 334h150l198 -334h-102zM410 1227l-250 334h149l203 -334h-102zM928 547q0 91 -18 167t-55.5 138.5t-104 97.5t-156.5 35q-85 0 -152.5 -37t-108.5 -99.5t-62 -140t-21 -163.5q0 -85 21 -161t62.5 -137.5t109.5 -97.5t155 -36q86 0 151.5 36t103.5 98 t56.5 137.5t18.5 162.5zM1102 549q0 -115 -33.5 -218t-96 -182.5t-160.5 -126.5t-218 -47q-121 0 -220 45t-163 123t-98.5 181.5t-34.5 222.5q0 118 35 222.5t100 183.5t164.5 125t220.5 46q123 0 220 -45.5t158.5 -124.5t93.5 -182t32 -223zM590 1098z" />
<glyph unicode="&#x20e;" horiz-adv-x="1660" d="M829 1884q102 0 178 -68t76 -190h-118q0 69 -38.5 105t-97.5 36t-96 -36t-37 -105h-116q0 122 74.5 190t174.5 68zM829 1372q-264 0 -402 -168.5t-138 -458.5q0 -132 32 -242t96 -194.5t169 -132t243 -47.5t243 47.5t168.5 132t95.5 194.5t32 242q0 288 -138 457.5 t-401 169.5zM829 -23q-141 0 -259.5 38t-205 106.5t-147 164t-90 211.5t-29.5 248q0 233 85.5 408.5t251.5 274t394 98.5t394 -98.5t251 -274t85 -408.5q0 -165 -47.5 -305t-137.5 -243.5t-229.5 -161.5t-315.5 -58zM829 1489z" />
<glyph unicode="&#x20f;" horiz-adv-x="1181" d="M592 1483q102 0 178 -68t76 -190h-119q0 69 -38 105t-97 36t-96 -36t-37 -105h-117q0 122 75 190t175 68zM928 547q0 91 -18 167t-55.5 138.5t-104 97.5t-156.5 35q-85 0 -152.5 -37t-108.5 -99.5t-62 -140t-21 -163.5q0 -85 21 -161t62.5 -137.5t109.5 -97.5t155 -36 q86 0 151.5 36t103.5 98t56.5 137.5t18.5 162.5zM1102 549q0 -115 -33.5 -218t-96 -182.5t-160.5 -126.5t-218 -47q-121 0 -220 45t-163 123t-98.5 181.5t-34.5 222.5q0 118 35 222.5t100 183.5t164.5 125t220.5 46q123 0 220 -45.5t158.5 -124.5t93.5 -182t32 -223z M590 1098z" />
<glyph unicode="&#x210;" horiz-adv-x="1280" d="M791 1628l-246 334h149l199 -334h-102zM522 1628l-250 334h150l203 -334h-103zM324 1341v-499l356 -4q133 -1 210.5 29t107.5 86t30 149q0 121 -70.5 180t-236.5 59h-397zM1272 0h-201l-203 465q-80 179 -106 223q-58 -4 -172 -4l-266 8v-692h-177v1495h474 q96 0 167 -5.5t141 -20t117 -42t84 -70t54.5 -105.5t17.5 -146q0 -143 -70.5 -243.5t-211.5 -137.5q-1 0 18.5 -33.5t48 -85t43.5 -84.5zM641 0z" />
<glyph unicode="&#x211;" horiz-adv-x="661" d="M465 1227l-246 334h150l198 -334h-102zM197 1227l-250 334h149l203 -334h-102zM123 0h168v643q0 130 80 215.5t227 85.5h41l-12 154h-31q-216 0 -322 -191l-12 191h-141q0 -42 1 -125.5t1 -126.5v-846zM330 0z" />
<glyph unicode="&#x212;" horiz-adv-x="1280" d="M707 1884q102 0 178 -68t76 -190h-119q0 69 -38 105t-97 36t-96.5 -36t-37.5 -105h-116q0 122 75 190t175 68zM324 1341v-499l356 -4q133 -1 210.5 29t107.5 86t30 149q0 121 -70.5 180t-236.5 59h-397zM1272 0h-201l-203 465q-80 179 -106 223q-58 -4 -172 -4l-266 8 v-692h-177v1495h474q96 0 167 -5.5t141 -20t117 -42t84 -70t54.5 -105.5t17.5 -146q0 -143 -70.5 -243.5t-211.5 -137.5q-1 0 18.5 -33.5t48 -85t43.5 -84.5zM641 0z" />
<glyph unicode="&#x213;" horiz-adv-x="661" d="M381 1483q102 0 178 -68t76 -190h-119q0 69 -38 105t-97 36t-96 -36t-37 -105h-117q0 122 75 190t175 68zM123 0h168v643q0 130 80 215.5t227 85.5h41l-12 154h-31q-216 0 -322 -191l-12 191h-141q0 -42 1 -125.5t1 -126.5v-846zM330 0z" />
<glyph unicode="&#x214;" horiz-adv-x="1384" d="M772 1628l-246 334h150l198 -334h-102zM504 1628l-250 334h149l203 -334h-102zM688 -23q-128 0 -225 26t-160 72.5t-103 116t-56.5 149.5t-16.5 181v973h176v-967q0 -218 90.5 -310.5t294.5 -92.5q203 0 294 93t91 310v967h176v-973q0 -101 -16.5 -181t-56 -149.5 t-102.5 -116t-160.5 -72.5t-225.5 -26zM1247 10z" />
<glyph unicode="&#x215;" horiz-adv-x="1097" d="M633 1227l-246 334h150l198 -334h-102zM365 1227l-250 334h149l203 -334h-102zM109 367v731h167v-733q0 -72 20 -122.5t58.5 -78t86 -39.5t110.5 -12q62 0 108.5 12.5t84.5 40t57.5 78t19.5 121.5v733h168v-731q0 -105 -35.5 -182.5t-97.5 -122.5t-138.5 -66t-166.5 -21 q-72 0 -135 13t-120 42.5t-98 74t-65 111.5t-24 151zM989 10z" />
<glyph unicode="&#x216;" horiz-adv-x="1384" d="M686 1884q102 0 178 -68t76 -190h-119q0 69 -38 105t-97 36t-96 -36t-37 -105h-117q0 122 75 190t175 68zM688 -23q-128 0 -225 26t-160 72.5t-103 116t-56.5 149.5t-16.5 181v973h176v-967q0 -218 90.5 -310.5t294.5 -92.5q203 0 294 93t91 310v967h176v-973 q0 -101 -16.5 -181t-56 -149.5t-102.5 -116t-160.5 -72.5t-225.5 -26zM1247 10z" />
<glyph unicode="&#x217;" horiz-adv-x="1097" d="M547 1483q102 0 178 -68t76 -190h-119q0 69 -38 105t-97 36t-96 -36t-37 -105h-117q0 122 75 190t175 68zM109 367v731h167v-733q0 -72 20 -122.5t58.5 -78t86 -39.5t110.5 -12q62 0 108.5 12.5t84.5 40t57.5 78t19.5 121.5v733h168v-731q0 -105 -35.5 -182.5 t-97.5 -122.5t-138.5 -66t-166.5 -21q-72 0 -135 13t-120 42.5t-98 74t-65 111.5t-24 151zM989 10z" />
<glyph unicode="&#x218;" horiz-adv-x="1239" d="M496 -623l95 498h165l-144 -498h-116zM145 244l-51 -144q81 -49 220.5 -86t316.5 -37q238 0 376 114.5t138 340.5q0 90 -25.5 158.5t-75 116.5t-114.5 79t-152 52l-280 67q-111 27 -166.5 78.5t-55.5 136.5q0 252 363 252q112 0 221 -28.5t178 -65.5l52 139 q-79 49 -198 79t-251 30q-256 0 -400.5 -102.5t-144.5 -313.5q0 -277 336 -360l295 -74q136 -34 188 -93.5t52 -156.5q0 -297 -326 -297q-264 0 -496 115zM614 0z" />
<glyph unicode="&#x219;" horiz-adv-x="1861" d="M854 295v4q0 133 -69 210.5t-207 113.5l-152 41q-85 22 -121.5 59.5t-36.5 91.5q0 83 59 129.5t152 46.5q142 0 281 -59l39 121q-139 71 -332 71q-89 -1 -160.5 -27.5t-115.5 -70.5t-67.5 -98t-23.5 -113q2 -108 66 -184t219 -119l145 -41q166 -47 166 -170v-10 q-7 -85 -63.5 -130.5t-151.5 -45.5h-16q-98 0 -180 30t-131 62l-43 -129q55 -41 159.5 -72t221.5 -31q160 0 259 84t103 236zM682 -1321l194 1020h338l-295 -1020h-237z" />
<glyph unicode="&#x21a;" horiz-adv-x="1024" d="M384 -601l95 498h165l-144 -498h-116zM-2 1341v154h1071v-154h-448v-1341h-177v1341h-446zM532 745z" />
<glyph unicode="&#x21b;" horiz-adv-x="669" d="M358 981v-614q0 -155 29.5 -201.5t128.5 -46.5q7 0 137 10l15 -135q-175 -14 -191 -14q-57 0 -99.5 9t-73.5 24t-51.5 45t-33 62t-19 86.5t-8.5 106t-2 131.5v537h-167l14 117h153l43 354l125 10v-364h291v-117h-291zM201 -609l95 498h165l-144 -498h-116z" />
<glyph unicode="&#x2c6;" horiz-adv-x="798" d="M109 1251l186 387h213l186 -387h-133l-162 273l-159 -273h-131zM401 1098z" />
<glyph unicode="&#x2da;" horiz-adv-x="632" d="M319 1638q-78 0 -136 -55t-58 -141q0 -83 58 -134t139 -51q77 0 134.5 51t57.5 134t-58 139.5t-137 56.5zM319 1329q-45 0 -71.5 31t-26.5 82q0 45 30 79.5t68 34.5q41 0 69 -34t28 -80q0 -45 -29.5 -79t-67.5 -34zM319 1098z" />
<glyph unicode="&#x2dc;" horiz-adv-x="884" d="M221 1290h-106q0 110 45 164.5t127 54.5q55 0 119.5 -23.5t112.5 -47t61 -23.5h2q19 1 30 17t13.5 32.5t3.5 44.5h108q0 -219 -147 -219q-46 0 -160 49.5t-151 49.5h-3q-24 0 -38.5 -28t-16.5 -71zM426 1098z" />
<glyph unicode="&#x1e02;" horiz-adv-x="1286" d="M680 1890q62 0 97.5 -39t35.5 -92q0 -54 -35.5 -93.5t-97.5 -39.5t-97.5 39.5t-35.5 93.5q0 53 35.5 92t97.5 39zM324 717v-578h313q198 0 296.5 70t98.5 219q0 141 -88.5 215t-255.5 74h-364zM324 1352v-502h354q59 0 105 9.5t90.5 34t69 76t24.5 126.5q0 66 -20 113 t-53 74.5t-88 43t-111.5 20.5t-137.5 5h-233zM147 0v1495h437q280 0 423.5 -86.5t143.5 -278.5q0 -116 -52.5 -205t-160.5 -124q90 -20 153.5 -80t92 -136t28.5 -159q0 -426 -542 -426h-523z" />
<glyph unicode="&#x1e03;" horiz-adv-x="1171" d="M606 1876q62 0 97.5 -39t35.5 -92q0 -54 -35.5 -93.5t-97.5 -39.5t-97.5 39.5t-35.5 93.5q0 53 35.5 92t97.5 39zM629 -25q113 0 203 46.5t146.5 127.5t86 186t29.5 226q0 112 -30 212t-86 179t-145 125.5t-200 46.5q-98 0 -192 -47.5t-154 -146.5v579l-168 -18v-1491 h166v164q51 -89 142 -139t202 -50zM616 113q-111 0 -187.5 61t-110 157t-33.5 220q0 192 95 312t241 122q67 0 120.5 -26.5t86.5 -69t55 -101t30.5 -116.5t8.5 -121q0 -64 -9 -123t-31 -117.5t-56 -101.5t-88 -69.5t-122 -26.5z" />
<glyph unicode="&#x1e0a;" horiz-adv-x="1521" d="M784 1890q63 0 98.5 -39t35.5 -92t-36 -93t-98 -40t-97.5 39.5t-35.5 93.5q0 53 35.5 92t97.5 39zM324 1341v-1185h315q280 0 432 145.5t152 431.5q0 139 -32 244t-89.5 173.5t-144 111.5t-187.5 61t-229 18h-217zM147 0v1495h371q161 0 292 -23t245 -77.5t191 -140.5 t121 -216.5t44 -300.5q0 -183 -57 -324.5t-162 -231.5t-249 -135.5t-322 -45.5h-474zM762 745z" />
<glyph unicode="&#x1e0b;" horiz-adv-x="1173" d="M569 1876q62 0 97.5 -39t35.5 -92q0 -54 -35.5 -93.5t-97.5 -39.5t-97.5 39.5t-35.5 93.5q0 53 35.5 92t97.5 39zM557 125q-82 0 -143.5 36.5t-96 99t-51 137t-16.5 159.5q0 79 17 150.5t51.5 133.5t95.5 99t141 37q85 0 150 -33t104 -92t58.5 -134.5t19.5 -166.5 q0 -187 -84.5 -306.5t-245.5 -119.5zM547 -25q110 0 199.5 54.5t138.5 142.5l20 -172h150v1509l-168 -18v-553q-42 86 -138 136t-208 50q-136 0 -242.5 -76t-163.5 -204t-57 -283q0 -172 54.5 -303.5t161.5 -207t253 -75.5zM586 549z" />
<glyph unicode="&#x1e1e;" horiz-adv-x="1024" d="M561 1890q62 0 97.5 -39t35.5 -92q0 -54 -35.5 -93.5t-97.5 -39.5t-97.5 39.5t-35.5 93.5q0 53 35.5 92t97.5 39zM940 838v-144h-616v-694h-177v1495h828l-14 -154h-637v-503h616z" />
<glyph unicode="&#x1e1f;" horiz-adv-x="620" d="M344 1903q62 0 97.5 -39t35.5 -92q0 -54 -35.5 -94t-97.5 -40t-97.5 40t-35.5 94q0 53 35.5 92t97.5 39zM39 981v117h162v32q2 124 20 201t61.5 123.5t107.5 64t167 17.5h74l20 -127h-94q-53 0 -86.5 -10t-54.5 -27t-31 -54.5t-13 -77.5t-3 -110v-32h247v-117h-247v-981 h-168v981h-162z" />
<glyph unicode="&#x1e40;" horiz-adv-x="1783" d="M893 1890q62 0 97.5 -39t35.5 -92q0 -54 -35.5 -93.5t-97.5 -39.5t-97.5 39.5t-35.5 93.5q0 53 35.5 92t97.5 39zM315 1182v-1182h-165v1495h192l557 -1149l553 1149h184v-1495h-166v1176l-473 -994h-200z" />
<glyph unicode="&#x1e41;" horiz-adv-x="1775" d="M893 1489q62 0 97.5 -39t35.5 -92q0 -54 -35.5 -93.5t-97.5 -39.5t-97.5 39.5t-35.5 93.5q0 53 35.5 92t97.5 39zM115 0h168v750q30 91 123.5 160t214.5 69q49 0 85 -17.5t58.5 -48.5t36.5 -78.5t19 -101.5t5 -125v-608h168v731q39 112 123 180t187 68q31 0 56 -6t44 -16 t33.5 -28.5t24.5 -37t17.5 -47.5t11.5 -55t6 -65t2.5 -71.5t0.5 -79.5v-573h168v696q0 428 -338 428q-247 0 -379 -202q-37 107 -113.5 154.5t-195.5 47.5q-107 0 -204 -48t-167 -142l-14 164h-145q0 -9 2 -117.5t2 -161.5v-819z" />
<glyph unicode="&#x1e56;" horiz-adv-x="1140" d="M631 1890q62 0 97.5 -39t35.5 -92q0 -54 -35.5 -93.5t-97.5 -39.5t-97.5 39.5t-35.5 93.5q0 53 35.5 92t97.5 39zM584 778q71 0 127 10t94 25.5t65.5 40.5t42.5 50t23.5 59t11 62t2.5 65q0 126 -85.5 186.5t-231.5 60.5h-309v-557q192 -2 260 -2zM324 0h-179v1495h484 q87 0 161.5 -14t138 -44.5t107.5 -76.5t69 -113.5t25 -152.5q0 -87 -16 -156t-55 -129t-102.5 -99.5t-161.5 -62t-228 -22.5q-66 0 -243 14v-639z" />
<glyph unicode="&#x1e57;" horiz-adv-x="1167" d="M606 1489q62 0 97.5 -39t35.5 -92q0 -54 -35.5 -93.5t-97.5 -39.5t-97.5 39.5t-35.5 93.5q0 53 35.5 92t97.5 39zM289 549q0 -92 17.5 -167.5t53.5 -135.5t98.5 -93.5t145.5 -33.5q82 0 145 38.5t98.5 102.5t53 137t17.5 152t-17.5 152.5t-53 137.5t-98.5 103t-145 39 q-83 0 -145.5 -33.5t-98.5 -94t-53.5 -136.5t-17.5 -168zM123 -459v1557h158l10 -148q129 174 340 174q95 0 172 -31t130 -84.5t88.5 -128t52 -160.5t16.5 -183q0 -150 -54 -277t-160 -206t-245 -79q-108 0 -196.5 46t-143.5 139v-596z" />
<glyph unicode="&#x1e60;" horiz-adv-x="1239" d="M627 1890q62 0 97.5 -39t35.5 -92q0 -54 -35.5 -93.5t-97.5 -39.5t-97.5 39.5t-35.5 93.5q0 53 35.5 92t97.5 39zM145 244l-51 -144q81 -49 220.5 -86t316.5 -37q238 0 376 114.5t138 340.5q0 90 -25.5 158.5t-75 116.5t-114.5 79t-152 52l-280 67q-111 27 -166.5 78.5 t-55.5 136.5q0 252 363 252q112 0 221 -28.5t178 -65.5l52 139q-79 49 -198 79t-251 30q-256 0 -400.5 -102.5t-144.5 -313.5q0 -277 336 -360l295 -74q136 -34 188 -93.5t52 -156.5q0 -297 -326 -297q-264 0 -496 115zM614 0z" />
<glyph unicode="&#x1e61;" horiz-adv-x="907" d="M449 1489q62 0 97.5 -39t35.5 -92q0 -54 -35.5 -93.5t-97.5 -39.5t-98 40t-36 93t35.5 92t98.5 39zM854 295v4q0 133 -69 210.5t-207 113.5l-152 41q-85 22 -121.5 59.5t-36.5 91.5q0 83 59 129.5t152 46.5q142 0 281 -59l39 121q-139 71 -332 71q-89 -1 -160.5 -27.5 t-115.5 -70.5t-67.5 -98t-23.5 -113q2 -108 66 -184t219 -119l145 -41q166 -47 166 -170v-10q-7 -85 -63.5 -130.5t-151.5 -45.5h-16q-98 0 -180 30t-131 62l-43 -129q55 -41 159.5 -72t221.5 -31q160 0 259 84t103 236zM467 0z" />
<glyph unicode="&#x1e6a;" horiz-adv-x="1024" d="M512 1890q62 0 97.5 -39t35.5 -92q0 -54 -35.5 -93.5t-97.5 -39.5t-97.5 39.5t-35.5 93.5q0 53 35.5 92t97.5 39zM-2 1341v154h1071v-154h-448v-1341h-177v1341h-446zM532 745z" />
<glyph unicode="&#x1e6b;" horiz-adv-x="669" d="M332 1827q62 0 97.5 -39t35.5 -92q0 -54 -35.5 -93.5t-97.5 -39.5t-97.5 39.5t-35.5 93.5q0 53 35.5 92t97.5 39zM358 981v-614q0 -155 29.5 -201.5t128.5 -46.5q7 0 137 10l15 -135q-175 -14 -191 -14q-57 0 -99.5 9t-73.5 24t-51.5 45t-33 62t-19 86.5t-8.5 106 t-2 131.5v537h-167l14 117h153l43 354l125 10v-364h291v-117h-291zM362 549z" />
<glyph unicode="&#x1e80;" horiz-adv-x="2129" d="M1171 1642l-321 388h250l184 -388h-113zM1540 195l436 1300h183l-514 -1495h-209l-353 1225l-399 -1225h-209l-502 1495h183l430 -1298l391 1245h209zM1067 1489z" />
<glyph unicode="&#x1e81;" horiz-adv-x="1597" d="M905 1251l-321 387h250l184 -387h-113zM14 1098h174l244 -875l291 875h197l278 -871l236 871h170l-328 -1098h-166l-293 928l-305 -928h-170zM811 1098z" />
<glyph unicode="&#x1e82;" horiz-adv-x="2129" d="M1286 2030l-325 -390h-115l186 390h254zM1540 195l436 1300h183l-514 -1495h-209l-353 1225l-399 -1225h-209l-502 1495h183l430 -1298l391 1245h209zM1067 1489z" />
<glyph unicode="&#x1e83;" horiz-adv-x="1597" d="M1020 1638l-326 -389h-114l186 389h254zM14 1098h174l244 -875l291 875h197l278 -871l236 871h170l-328 -1098h-166l-293 928l-305 -928h-170zM811 1098z" />
<glyph unicode="&#x1e84;" horiz-adv-x="2129" d="M948 1645h-153v213h153v-213zM1339 1645h-155v213h155v-213zM1540 195l436 1300h183l-514 -1495h-209l-353 1225l-399 -1225h-209l-502 1495h183l430 -1298l391 1245h209zM1067 1489z" />
<glyph unicode="&#x1e85;" horiz-adv-x="1597" d="M682 1253h-154v213h154v-213zM1073 1253h-155v213h155v-213zM14 1098h174l244 -875l291 875h197l278 -871l236 871h170l-328 -1098h-166l-293 928l-305 -928h-170zM811 1098z" />
<glyph unicode="&#x1ebc;" horiz-adv-x="1138" d="M365 1681h-107q0 110 45 165t127 55q55 0 119.5 -23.5t112.5 -47.5t61 -24h2q19 1 30 17.5t13.5 33t3.5 44.5h109q0 -220 -148 -220q-47 0 -160 49.5t-151 49.5h-2q-24 0 -38.5 -28t-16.5 -71zM987 846v-154h-663v-536h735l-17 -156h-895v1495h881l-12 -154h-692v-495 h663zM1026 10z" />
<glyph unicode="&#x1ebd;" horiz-adv-x="1087" d="M338 1290h-107q0 110 45 164.5t127 54.5q55 0 119.5 -23.5t112.5 -47t61 -23.5h2q19 1 30 17t13.5 32.5t3.5 44.5h109q0 -219 -147 -219q-47 0 -161 49.5t-151 49.5h-2q-24 0 -38.5 -28t-16.5 -71zM582 -25q254 0 405 131l-51 123q-162 -110 -348 -110q-148 0 -243 108.5 t-95 290.5h751q0 9 1.5 38.5t1.5 37.5q0 243 -119.5 386.5t-323.5 143.5q-215 -6 -349 -166t-134 -407q0 -265 135 -420.5t369 -155.5zM256 635q13 161 96.5 256.5t208.5 95.5q127 0 204 -91t77 -261h-586zM977 10z" />
<glyph unicode="&#x1ef2;" horiz-adv-x="1241" d="M727 1642l-321 388h249l185 -388h-113zM1243 1495l-557 -881v-614h-176v614l-510 881h186l424 -717l441 717h192zM621 1489z" />
<glyph unicode="&#x1ef3;" horiz-adv-x="989" d="M600 1251l-321 387h249l185 -387h-113zM180 1098h-176l426 -1075q-31 -92 -51.5 -145.5t-47 -100.5t-48.5 -68t-59.5 -36.5t-76 -19t-102.5 -3.5h-29l21 -152h51q76 0 138.5 14.5t111 45t85.5 67.5t68.5 92.5t54.5 108.5t48 127l399 1145h-178q-203 -630 -289 -891z M510 1098z" />
<glyph unicode="&#x1ef8;" horiz-adv-x="1241" d="M416 1681h-107q0 110 45 165t127 55q55 0 119.5 -23.5t112.5 -47.5t61 -24h2q19 1 30 17.5t13.5 33t3.5 44.5h109q0 -220 -148 -220q-46 0 -160 49.5t-151 49.5h-2q-24 0 -38.5 -28t-16.5 -71zM1243 1495l-557 -881v-614h-176v614l-510 881h186l424 -717l441 717h192z M621 1489z" />
<glyph unicode="&#x1ef9;" horiz-adv-x="989" d="M291 1290h-107q0 110 45 164.5t127 54.5q55 0 119.5 -23.5t112.5 -47t61 -23.5h2q19 1 30 17t13.5 32.5t3.5 44.5h109q0 -219 -148 -219q-47 0 -160 49.5t-151 49.5h-2q-24 0 -38.5 -28t-16.5 -71zM180 1098h-176l426 -1075q-31 -92 -51.5 -145.5t-47 -100.5t-48.5 -68 t-59.5 -36.5t-76 -19t-102.5 -3.5h-29l21 -152h51q76 0 138.5 14.5t111 45t85.5 67.5t68.5 92.5t54.5 108.5t48 127l399 1145h-178q-203 -630 -289 -891zM510 1098z" />
<glyph unicode="&#x2000;" horiz-adv-x="1259" />
<glyph unicode="&#x2001;" horiz-adv-x="2519" />
<glyph unicode="&#x2002;" horiz-adv-x="1259" />
<glyph unicode="&#x2003;" horiz-adv-x="2519" />
<glyph unicode="&#x2004;" horiz-adv-x="839" />
<glyph unicode="&#x2005;" horiz-adv-x="629" />
<glyph unicode="&#x2006;" horiz-adv-x="419" />
<glyph unicode="&#x2007;" horiz-adv-x="419" />
<glyph unicode="&#x2008;" horiz-adv-x="314" />
<glyph unicode="&#x2009;" horiz-adv-x="503" />
<glyph unicode="&#x200a;" horiz-adv-x="139" />
<glyph unicode="&#x2010;" horiz-adv-x="684" d="M88 520v144h510v-144h-510z" />
<glyph unicode="&#x2011;" horiz-adv-x="684" d="M88 520v144h510v-144h-510z" />
<glyph unicode="&#x2012;" horiz-adv-x="684" d="M88 520v144h510v-144h-510z" />
<glyph unicode="&#x2013;" horiz-adv-x="1316" d="M1186 676v-150h-1047v150h1047z" />
<glyph unicode="&#x2014;" horiz-adv-x="2426" d="M2296 676v-150h-2157v150h2157z" />
<glyph unicode="&#x2018;" horiz-adv-x="509" d="M383 1575l-92 -473h-162l135 473h119z" />
<glyph unicode="&#x2019;" horiz-adv-x="503" d="M250 1102h-117l92 473h158z" />
<glyph unicode="&#x201a;" horiz-adv-x="503" d="M127 -256l90 471h162l-133 -471h-119z" />
<glyph unicode="&#x201c;" horiz-adv-x="817" d="M129 1102l133 473h121l-94 -473h-160zM438 1102l135 473h117l-90 -473h-162z" />
<glyph unicode="&#x201d;" horiz-adv-x="794" d="M420 1102l92 473h162l-137 -473h-117zM133 1102l92 473h160l-135 -473h-117z" />
<glyph unicode="&#x201e;" horiz-adv-x="817" d="M440 -256l92 471h162l-135 -471h-119zM127 -256l88 471h162l-133 -471h-117z" />
<glyph unicode="&#x2026;" horiz-adv-x="1480" d="M1247 -12q62 0 97.5 39.5t35.5 93.5q0 53 -35.5 92t-97.5 39t-97.5 -39t-35.5 -92q0 -54 35.5 -93.5t97.5 -39.5zM754 -12q62 0 97.5 39.5t35.5 93.5q0 53 -35.5 92t-97.5 39t-97.5 -39t-35.5 -92q0 -54 35.5 -93.5t97.5 -39.5zM260 -12q62 0 97.5 39.5t35.5 93.5 q0 53 -35.5 92t-97.5 39t-97.5 -39t-35.5 -92q0 -54 35.5 -93.5t97.5 -39.5z" />
<glyph unicode="&#x202f;" horiz-adv-x="503" />
<glyph unicode="&#x2039;" horiz-adv-x="618" d="M360 981h142l-234 -397l228 -402h-140l-235 402z" />
<glyph unicode="&#x203a;" horiz-adv-x="616" d="M506 586l-242 -404h-139l229 404l-225 395h139z" />
<glyph unicode="&#x205f;" horiz-adv-x="629" />
<glyph unicode="&#x20ac;" horiz-adv-x="1193" d="M84 580l16 102h93q0 8 -1.5 24.5t-1.5 24.5q0 23 3.5 65.5t3.5 49.5h-113l18 110h111q19 127 63.5 229.5t113 179t166.5 118t218 41.5q185 0 293 -94l-2 -181q-109 119 -268 119q-164 0 -263 -110t-131 -302h558l-17 -110h-559q-2 -21 -2.5 -62.5t-0.5 -71.5t-1 -30h549 l-10 -102h-523q11 -92 39 -169.5t73.5 -140.5t114 -99t154.5 -36q151 0 289 109l-2 -174q-130 -93 -305 -93q-101 0 -187 35t-146.5 92.5t-107 137t-74 163t-40.5 175.5h-121z" />
<glyph unicode="&#x2122;" horiz-adv-x="1810" d="M90 1495h637v-100h-264v-787h-115v787h-258v100zM850 1495h156l268 -672l280 672h150v-887h-115v742l-278 -670h-86l-264 670v-742h-111v887z" />
<glyph unicode="&#x25fc;" horiz-adv-x="1095" d="M0 1096h1096v-1096h-1096v1096z" />
</font>
</defs>
</svg>
